<svg width="48" height="48" viewBox="0 0 48 48" fill="none" xmlns="http://www.w3.org/2000/svg">
<g clip-path="url(#clip0_1_191)">
<path d="M24 47C36.7025 47 47 36.7025 47 24C47 11.2975 36.7025 1 24 1C11.2975 1 1 11.2975 1 24C1 36.7025 11.2975 47 24 47Z" stroke="black" stroke-width="2"/>
<path fill-rule="evenodd" clip-rule="evenodd" d="M22.489 27.727C21.874 30.793 21.123 33.732 18.899 35.267C18.212 30.634 19.907 27.154 20.694 23.46C19.352 21.311 20.855 16.988 23.686 18.054C27.169 19.364 20.67 26.04 25.033 26.874C29.588 27.744 31.448 19.359 28.623 16.631C24.542 12.693 16.743 16.541 17.701 22.179C17.935 23.558 19.432 23.976 18.3 25.879C15.687 25.327 14.908 23.369 15.008 20.757C15.17 16.482 19.048 13.489 22.938 13.075C27.858 12.551 32.474 14.792 33.112 19.192C33.829 24.158 30.892 29.537 25.631 29.15C24.205 29.045 23.607 28.373 22.489 27.728V27.727Z" fill="black"/>
</g>
<defs>
<clipPath id="clip0_1_191">
<rect width="48" height="48" fill="white"/>
</clipPath>
</defs>
</svg>
