<svg width="48" height="48" viewBox="0 0 48 48" fill="none" xmlns="http://www.w3.org/2000/svg">
<g clip-path="url(#clip0_1_194)">
<path d="M24 47C36.7025 47 47 36.7025 47 24C47 11.2975 36.7025 1 24 1C11.2975 1 1 11.2975 1 24C1 36.7025 11.2975 47 24 47Z" stroke="black" stroke-width="2"/>
<path d="M32.589 20.0099C32.589 19.8179 32.585 19.6269 32.576 19.4379C33.4499 18.8247 34.2063 18.0592 34.809 17.1779C33.9898 17.5245 33.1237 17.7476 32.239 17.8399C33.1705 17.3029 33.8712 16.4413 34.207 15.4199C33.3258 15.9225 32.3654 16.2712 31.367 16.4509C30.9479 16.002 30.4426 15.6422 29.8812 15.393C29.3199 15.1439 28.7141 15.0105 28.1 15.0009C27.5163 14.9891 26.9361 15.0939 26.3934 15.3093C25.8508 15.5246 25.3566 15.8462 24.9399 16.2551C24.5231 16.664 24.1923 17.152 23.9666 17.6905C23.741 18.229 23.6252 18.8071 23.626 19.3909C23.626 19.7409 23.664 20.0809 23.742 20.4089C20.021 20.1829 16.723 18.3589 14.517 15.6109C14.1186 16.2948 13.9098 17.0725 13.912 17.8639C13.912 19.4239 14.702 20.8109 15.902 21.6289C15.1895 21.5985 14.4945 21.3983 13.875 21.0449V21.1019C13.8746 22.1405 14.231 23.1477 14.8845 23.9549C15.5381 24.762 16.4491 25.3202 17.465 25.5359C16.8053 25.7106 16.1144 25.7325 15.445 25.5999C15.7289 26.4925 16.2842 27.2743 17.0334 27.8364C17.7827 28.3986 18.6886 28.713 19.625 28.7359C18.0392 29.977 16.0817 30.648 14.068 30.6409C13.707 30.6409 13.35 30.6179 13 30.5769C15.0431 31.9001 17.4258 32.6031 19.86 32.6009C28.089 32.6029 32.589 25.8609 32.589 20.0109V20.0099Z" fill="black"/>
</g>
<defs>
<clipPath id="clip0_1_194">
<rect width="48" height="48" fill="white"/>
</clipPath>
</defs>
</svg>
