<svg width="48" height="48" viewBox="0 0 48 48" fill="none" xmlns="http://www.w3.org/2000/svg">
<g clip-path="url(#clip0_1_197)">
<path d="M24 47C36.7025 47 47 36.7025 47 24C47 11.2975 36.7025 1 24 1C11.2975 1 1 11.2975 1 24C1 36.7025 11.2975 47 24 47Z" stroke="black" stroke-width="2"/>
<path fill-rule="evenodd" clip-rule="evenodd" d="M24.134 13C21.114 13 20.729 13.013 19.544 13.07C18.359 13.129 17.552 13.315 16.846 13.598C16.0985 13.8833 15.4241 14.3319 14.872 14.911C14.3054 15.4836 13.8671 16.1701 13.586 16.925C13.309 17.645 13.12 18.475 13.069 19.679L13.066 19.755C13.018 20.906 13 21.34 13 24.363C13 27.445 13.013 27.831 13.07 29.047C13.126 30.257 13.309 31.081 13.586 31.801C13.8622 32.5583 14.3012 33.2458 14.872 33.815C15.4259 34.392 16.0998 34.8402 16.846 35.128C17.552 35.411 18.366 35.598 19.544 35.655C20.729 35.713 21.108 35.726 24.134 35.726C27.154 35.726 27.532 35.713 28.724 35.656C29.908 35.597 30.715 35.411 31.428 35.128C32.172 34.8399 32.8436 34.3916 33.395 33.815C33.9616 33.2424 34.3999 32.5559 34.681 31.801C34.952 31.081 35.141 30.257 35.198 29.047L35.201 28.971C35.249 27.82 35.267 27.386 35.267 24.363C35.267 21.281 35.255 20.895 35.197 19.679C35.141 18.469 34.952 17.646 34.681 16.925C34.4023 16.1689 33.9637 15.4819 33.395 14.911C32.8405 14.3348 32.1668 13.8867 31.421 13.598C30.709 13.315 29.902 13.128 28.717 13.071C27.532 13.013 27.153 13 24.134 13ZM23.142 15.042H24.138C27.107 15.042 27.46 15.055 28.633 15.106C29.717 15.157 30.303 15.344 30.701 15.499C31.218 15.704 31.589 15.949 31.981 16.348C32.371 16.747 32.611 17.126 32.812 17.654C32.964 18.053 33.147 18.658 33.197 19.764C33.247 20.961 33.26 21.322 33.26 24.352C33.26 27.382 33.248 27.743 33.197 28.94C33.147 30.047 32.964 30.645 32.812 31.05C32.6344 31.5414 32.3503 31.9874 31.98 32.356C31.59 32.756 31.224 33 30.7 33.206C30.31 33.36 29.717 33.546 28.633 33.598C27.46 33.65 27.107 33.663 24.138 33.663C21.168 33.663 20.815 33.65 19.643 33.598C18.558 33.547 17.972 33.36 17.575 33.206C17.0899 33.0224 16.6524 32.7318 16.295 32.356C15.9247 31.9874 15.6406 31.5414 15.463 31.05C15.311 30.651 15.129 30.047 15.078 28.94C15.028 27.743 15.015 27.383 15.015 24.352C15.015 21.322 15.028 20.962 15.078 19.764C15.128 18.658 15.311 18.059 15.463 17.654C15.665 17.126 15.904 16.747 16.295 16.348C16.685 15.948 17.058 15.704 17.575 15.498C17.965 15.344 18.558 15.158 19.643 15.106C20.67 15.055 21.067 15.042 23.141 15.042H23.142ZM28.739 18.302C28.739 17.548 29.338 16.937 30.075 16.937C30.813 16.937 31.412 17.548 31.412 18.301C31.412 19.054 30.812 19.665 30.075 19.665C29.338 19.665 28.739 19.054 28.739 18.301V18.302ZM24.129 18.532C20.97 18.532 18.417 21.144 18.417 24.362C18.417 27.585 20.977 30.191 24.129 30.191C27.287 30.191 29.841 27.578 29.841 24.361C29.841 21.138 27.287 18.531 24.129 18.531V18.532ZM27.841 24.354C27.841 22.264 26.183 20.571 24.134 20.571C22.085 20.571 20.427 22.263 20.427 24.354C20.427 26.445 22.085 28.138 24.134 28.138C26.184 28.138 27.841 26.445 27.841 24.354Z" fill="black"/>
</g>
<defs>
<clipPath id="clip0_1_197">
<rect width="48" height="48" fill="white"/>
</clipPath>
</defs>
</svg>
