<svg width="48" height="48" viewBox="0 0 48 48" fill="none" xmlns="http://www.w3.org/2000/svg">
<g clip-path="url(#clip0_1_200)">
<path d="M24 47C36.7025 47 47 36.7025 47 24C47 11.2975 36.7025 1 24 1C11.2975 1 1 11.2975 1 24C1 36.7025 11.2975 47 24 47Z" stroke="black" stroke-width="2"/>
<path fill-rule="evenodd" clip-rule="evenodd" d="M17.076 19.108C18.372 19.108 19.179 18.195 19.179 17.053C19.155 15.887 18.372 15 17.102 15C15.832 15 15 15.887 15 17.053C15 18.195 15.807 19.108 17.054 19.108H17.076ZM32.33 32.622V25.806C32.33 22.155 30.497 20.455 28.053 20.455C26.08 20.455 25.197 21.609 24.703 22.418V20.735H20.988C21.038 21.85 20.988 32.622 20.988 32.622H24.704V25.983C24.704 25.628 24.728 25.273 24.826 25.02C25.094 24.31 25.706 23.575 26.731 23.575C28.077 23.575 28.614 24.665 28.614 26.263V32.623L32.33 32.622ZM18.93 20.732V32.619H15.214V20.732H18.929H18.93Z" fill="black"/>
</g>
<defs>
<clipPath id="clip0_1_200">
<rect width="48" height="48" fill="white"/>
</clipPath>
</defs>
</svg>
