<svg width="48" height="48" viewBox="0 0 48 48" fill="none" xmlns="http://www.w3.org/2000/svg">
<g clip-path="url(#clip0_1_188)">
<path d="M24 47C36.7025 47 47 36.7025 47 24C47 11.2975 36.7025 1 24 1C11.2975 1 1 11.2975 1 24C1 36.7025 11.2975 47 24 47Z" stroke="black" stroke-width="2"/>
<path d="M23 22.81L35.78 14.6C35.2662 14.2146 34.6423 14.0043 34 14H12C11.3577 14.0043 10.7338 14.2146 10.22 14.6L23 22.81ZM23.54 24.84L23.37 24.92H23.29C23.1979 24.9611 23.1001 24.9881 23 25C22.917 25.0105 22.833 25.0105 22.75 25H22.67L22.5 24.92L9.1 16.26C9.03598 16.5015 9.00238 16.7501 9 17V31C9 31.7956 9.31607 32.5587 9.87868 33.1213C10.4413 33.6839 11.2044 34 12 34H34C34.7956 34 35.5587 33.6839 36.1213 33.1213C36.6839 32.5587 37 31.7956 37 31V17C36.9976 16.7501 36.964 16.5015 36.9 16.26L23.54 24.84Z" fill="black"/>
</g>
<defs>
<clipPath id="clip0_1_188">
<rect width="48" height="48" fill="white"/>
</clipPath>
</defs>
</svg>
