<svg width="26" height="25" viewBox="0 0 26 25" fill="none" xmlns="http://www.w3.org/2000/svg">
<path d="M7 4V3C7 1.35 5.65 0 4 0H0V2H4C4.55 2 5 2.45 5 3V18C5 19.65 6.35 21 8 21H24V19H8C7.45 19 7 18.55 7 18V16.85L23.49 14.26C24.1915 14.1445 24.829 13.7834 25.2888 13.2411C25.7486 12.6989 26.0007 12.0109 26 11.3V4H7ZM24 11.31C24 11.8 23.65 12.22 23.17 12.29L7 14.83V6H24V11.31ZM8 23.5C8 24.33 7.33 25 6.5 25C5.67 25 5 24.33 5 23.5C5 22.67 5.67 22 6.5 22C7.33 22 8 22.67 8 23.5ZM24 23.5C24 24.33 23.33 25 22.5 25C21.67 25 21 24.33 21 23.5C21 22.67 21.67 22 22.5 22C23.33 22 24 22.67 24 23.5Z" fill="black"/>
</svg>
