<svg width="176" height="18" viewBox="0 0 176 18" fill="none" xmlns="http://www.w3.org/2000/svg">
<g clip-path="url(#clip0_1_141)">
<path d="M41.9667 16.9493V1.51074H47.6264C48.6491 1.4967 49.6643 1.68599 50.6131 2.06762C51.562 2.44925 52.4256 3.01561 53.1537 3.7338C53.8818 4.45199 54.46 5.3077 54.8546 6.25122C55.2492 7.19475 55.4524 8.20728 55.4524 9.23C55.4524 10.2527 55.2492 11.2652 54.8546 12.2088C54.46 13.1523 53.8818 14.008 53.1537 14.7262C52.4256 15.4444 51.562 16.0107 50.6131 16.3924C49.6643 16.774 48.6491 16.9633 47.6264 16.9493H41.9667ZM47.6264 13.8618C48.2416 13.8727 48.8528 13.761 49.4243 13.5331C49.9958 13.3052 50.5162 12.9658 50.9551 12.5346C51.394 12.1034 51.7426 11.5891 51.9806 11.0218C52.2186 10.4544 52.3411 9.84526 52.3411 9.23C52.3411 8.61473 52.2186 8.00563 51.9806 7.43824C51.7426 6.87086 51.394 6.35656 50.9551 5.92537C50.5162 5.49419 49.9958 5.15475 49.4243 4.92687C48.8528 4.69899 48.2416 4.58725 47.6264 4.59815H45.0541V13.8618H47.6264Z" fill="black"/>
<path d="M68.5429 16.9493C67.0156 16.9493 65.5227 16.4963 64.253 15.6476C62.9832 14.7989 61.9937 13.5927 61.4097 12.1816C60.8256 10.7704 60.6733 9.21773 60.9719 7.71996C61.2704 6.22219 62.0066 4.84664 63.0871 3.76733C64.1676 2.68801 65.544 1.95345 67.0421 1.65656C68.5402 1.35966 70.0927 1.51379 71.5032 2.09944C72.9137 2.68508 74.1188 3.67593 74.966 4.94663C75.8133 6.21732 76.2646 7.71076 76.2628 9.238C76.2601 11.2838 75.4457 13.245 73.9982 14.6908C72.5508 16.1366 70.5887 16.9489 68.5429 16.9493ZM63.9117 9.238C63.9138 10.1539 64.1872 11.0486 64.6975 11.8091C65.2078 12.5696 65.9321 13.1618 66.7789 13.5108C67.6256 13.8598 68.5569 13.95 69.4549 13.77C70.3528 13.59 71.1773 13.1479 71.8241 12.4994C72.4709 11.851 72.911 11.0254 73.0888 10.127C73.2665 9.2285 73.174 8.29752 72.8229 7.45165C72.4717 6.60578 71.8777 5.88297 71.1159 5.37456C70.3541 4.86615 69.4587 4.59495 68.5429 4.59524C67.3144 4.59717 66.137 5.0863 65.2687 5.95533C64.4005 6.82436 63.9125 8.00231 63.9117 9.23072V9.238Z" fill="black"/>
<path d="M84.3539 1.51074H85.1367L90.715 7.54153L96.2729 1.51074H97.0761L98.2488 16.9493H95.1613L94.4819 8.01584L90.715 12.0897L86.9481 8.01584L86.2483 16.9493H83.1594L84.3539 1.51074Z" fill="black"/>
<path d="M117.971 14.3768H110.025L108.625 16.9491H105.106L113.999 0.666748L122.912 16.9491H119.392L117.971 14.3768ZM116.283 11.2879L113.999 7.08892L111.713 11.2879H116.283Z" fill="black"/>
<path d="M133.453 16.9493H130.364V1.51074H133.451L133.453 16.9493Z" fill="black"/>
<path d="M142.2 1.51074H143.022L152.491 10.5315V1.51074H155.578V16.9493H154.734L145.286 7.92855V16.9493H142.2V1.51074Z" fill="black"/>
<path d="M164.677 1.51074H176V4.59525H167.765V9.23073H173.941V12.3181H167.765V13.8618H176V16.9493H164.677V1.51074Z" fill="black"/>
<path d="M14.324 1.46851H13.3434L7.77528 7.50511L2.18243 1.46851H1.22653L0 17.3333H3.37258L4.07387 8.46538L7.77528 12.4781L11.484 8.46538L12.1576 17.3406H15.5302L14.324 1.46851ZM1.00537 16.4036L2.06458 2.70376L7.77673 8.8815L13.4845 2.68776L14.5263 16.4036H13.0204L12.2493 6.26695L7.77528 11.1076L3.30566 6.27131L2.51125 16.4036H1.00537Z" fill="black"/>
<path d="M32.5909 1.46851L28.501 7.98088L24.4272 1.46851H20.4479L26.8162 11.643V17.3333H30.1873V11.643L36.576 1.46851H32.5909ZM29.2576 11.3753V16.4036H27.7459V11.3767L22.1283 2.39822H23.9121L28.4996 9.73119L33.1103 2.39822H34.8941L29.2576 11.3753Z" fill="black"/>
</g>
<defs>
<clipPath id="clip0_1_141">
<rect width="176" height="18" fill="white"/>
</clipPath>
</defs>
</svg>
