<svg width="114" height="17" viewBox="0 0 114 17" fill="none" xmlns="http://www.w3.org/2000/svg">
<g clip-path="url(#clip0_1_157)">
<path fill-rule="evenodd" clip-rule="evenodd" d="M54.1728 4.59483C54.1728 6.89226 53.9439 14.0141 53.9439 14.0141C53.9439 15.3923 54.4018 16.0047 55.7011 16.0047V16.6171H50.5819V16.0047C51.8805 16.0047 52.5681 15.3923 52.5681 14.0141L53.0267 2.3741C52.6446 1.45486 52.2626 1.14867 51.2695 1.07261V0.536928H55.1659L59.292 11.4111L63.4946 0.536928H67.009V1.07261C66.0159 1.07261 65.4815 1.53222 65.4815 2.60423L65.94 13.8613C65.94 15.5464 66.2456 16.0054 67.6213 16.0054V16.6177H61.7381V16.0054C62.8836 16.0054 63.4194 15.6224 63.3422 13.8613C63.3422 13.8613 63.1126 5.97368 63.0367 4.59548L60.2105 12.4064C59.786 13.5068 59.4286 14.632 59.1402 15.7759L58.2243 15.8526C57.9947 15.0101 57.3837 13.4791 57.3837 13.4791C57.3837 13.4791 55.0128 6.81555 54.1728 4.59483ZM49.3592 16.6938C49.0537 16.6171 48.7482 16.6171 48.442 16.6171C47.831 16.6171 46.7607 16.9233 45.4621 16.9233C40.4954 16.9233 36.8279 13.9368 36.8279 8.42324C36.8279 3.7523 40.2664 0.153374 45.538 0.153374C46.76 0.153374 48.1358 0.383506 49.282 0.842474C49.511 0.61234 49.5875 0.459567 49.8165 0.230083H50.2751C50.1986 1.07261 49.893 3.82901 49.893 3.82901H49.4344C49.1289 2.22133 48.2883 1.14867 45.6139 1.14867C42.405 1.14867 39.5016 3.67559 39.5016 8.34718C39.5016 13.6312 42.4815 15.928 45.767 15.928C47.9069 15.928 49.2055 14.7032 50.0461 13.1716L50.5813 13.4017L49.3592 16.6938ZM34.9176 3.52282H34.3831C34.3066 2.0679 33.848 1.60829 32.7018 1.60829H30.486V13.6312C30.486 15.6218 30.8681 16.0047 32.1673 16.0047V16.6171H26.4365V16.0047C27.7357 16.0047 28.1178 15.6218 28.1178 13.5538V1.60829H25.902C24.4503 1.60829 24.2207 1.99119 23.8386 3.52282H23.3041L23.6862 0.0766602L24.0682 0.153374C24.2207 0.53628 24.5268 0.536278 25.4434 0.536278H32.8549C34.2307 0.536278 34.5362 0.536278 34.8417 0.0766602H35.3003L34.9176 3.52282Z" fill="black"/>
<path fill-rule="evenodd" clip-rule="evenodd" d="M18.7195 17C17.6498 17 16.8092 16.8472 16.1981 16.6171C15.5871 16.4643 15.1285 16.2342 14.8995 16.0814C14.594 16.3876 14.3644 16.7705 14.3644 16.7705L13.9058 16.6177L14.2879 13.0188L14.823 13.0955C15.1285 14.7799 16.2747 16.0054 18.6436 16.0054C20.4773 16.0054 21.7 14.4744 21.7 12.7893C21.7 11.4111 21.1649 10.7214 19.3311 9.34317C18.7201 8.96027 18.185 8.65407 17.7264 8.27117C16.0457 7.19981 14.9754 5.97438 14.9754 3.98314C14.9754 1.6857 16.8857 0.154072 19.407 0.154072C20.8587 0.154072 21.7759 0.613691 22.0814 0.766463L22.6159 0.154072L22.998 0.230781L22.6159 3.52352L22.0814 3.44681C22.0814 1.91583 21.1642 1.22608 19.636 1.22608C18.1843 1.22608 17.1147 1.99189 17.1147 3.44681C17.1147 4.74895 18.1078 5.59082 19.2539 6.35728C19.865 6.74019 20.3236 7.04638 20.7815 7.35258C23.4559 9.26646 24.0669 10.4919 24.0669 12.3297C24.0682 15.0094 22.0049 17 18.7195 17ZM10.0094 3.52287H9.39832C9.39832 2.14401 8.78729 1.60834 7.56458 1.60834H4.12608V7.65813H6.34187C7.48804 7.65813 7.71766 7.04574 7.8701 6.04979H8.40459V10.3385H7.8701C7.71766 9.18975 7.48804 8.73013 6.26533 8.73013H4.12608V13.8613C4.12608 15.7752 4.58468 16.0054 5.80738 16.0054V16.6177H0V16.0054C1.45168 16.0054 1.68066 15.6224 1.68066 13.8613V2.60363C1.68066 1.53162 1.22206 1.07201 0 1.07201V0.536327H7.94599C9.32113 0.536327 9.62665 0.459618 9.85627 0H10.3914L10.0094 3.52287ZM92.4531 4.44145V13.6306C92.4531 15.6211 92.9104 16.0041 94.1331 16.0041V16.6164H85.1181V16.0041C85.8063 16.0041 86.4167 15.7739 86.4167 15.315C86.4167 15.0081 86.3408 14.4724 86.1871 13.9361L85.4989 11.7154H80.4569C80.3797 12.0222 79.4638 14.5485 79.4638 15.2382C79.4638 15.8506 80.152 16.0041 80.6093 16.0041V16.6164H76.4067V16.0041C77.1708 16.0041 77.7825 15.9273 78.317 14.3197L82.2141 1.83717C81.9845 1.30149 81.6796 1.14807 81.1451 1.07135V0.535677H84.5836L88.7084 13.6306C89.0911 15.0088 89.4725 15.6985 90.0842 16.0041C91.0014 15.6979 91.231 15.3917 91.231 13.6306V2.60363C90.5428 1.6844 90.4656 1.07201 89.167 1.07201V0.536327H93.0641L99.4825 11.4865V3.13996C99.4825 1.45492 99.1011 1.07201 97.8012 1.07201V0.536327H106.359V1.07201C105.824 1.07201 105.366 1.30214 105.366 1.83782C105.366 2.22072 105.519 2.60363 105.671 3.06325L108.117 8.34723L110.486 3.21667C110.867 2.52757 110.944 2.14466 110.944 1.76176C110.944 1.30214 110.637 1.07201 109.951 1.07201V0.536327H114V1.07201C113.007 1.07201 112.395 1.99124 111.937 3.0626L108.804 9.49529V13.7073C108.804 15.5457 109.263 16.0047 110.486 16.0047V16.6171H104.678V16.0047C105.901 16.0047 106.36 15.5457 106.36 13.7073V10.1083L102.997 2.98654C102.387 1.60834 102.157 1.30214 101.774 1.07201C101.01 1.3782 100.781 1.91453 100.781 3.13996V14.9327C100.781 14.9327 100.858 15.8519 100.934 16.9233L99.9411 17L92.4531 4.44145ZM82.9023 3.67564L80.7624 10.6447H85.194L82.9023 3.67564Z" fill="black"/>
<path fill-rule="evenodd" clip-rule="evenodd" d="M73.4268 10.6446H72.2813V13.9366C72.2813 15.6217 72.7386 16.0046 74.0385 16.0046V16.617H68.1552V16.0046C69.3779 16.0046 69.8365 15.5456 69.8365 13.8606V3.06314C69.8365 1.37874 69.3779 1.07255 68.1552 1.07255V0.536865H72.5868C76.8653 0.536865 79.386 1.83836 79.386 5.36058C79.3866 9.03622 76.3308 10.6446 73.4268 10.6446ZM72.6627 1.60823H72.2813V9.49518H72.9682C75.4908 9.49518 76.7894 8.34647 76.7894 5.43664C76.7894 2.52681 75.6426 1.60823 72.6627 1.60823ZM46.7607 13.5537C43.8573 13.5537 41.8705 11.4858 41.8705 8.49989C41.8705 5.66677 43.9339 3.44605 46.7607 3.44605C49.5116 3.44605 51.5743 5.59006 51.5743 8.49989C51.575 11.333 49.4351 13.5537 46.7607 13.5537ZM46.7607 4.36463C44.7745 4.36463 44.0863 6.27916 44.0863 8.49989C44.0863 10.5679 44.698 12.6352 46.7607 12.6352C48.7475 12.6352 49.3585 10.5672 49.3585 8.42318C49.3592 6.35588 48.5951 4.36463 46.7607 4.36463ZM13.1423 12.6352V12.0988C13.9065 12.0988 14.0595 11.8693 14.0595 11.6399C14.0595 11.333 13.983 11.1035 13.9065 10.874C13.9065 10.874 13.7534 10.261 13.6009 9.80203H10.621L10.3155 10.7973C10.2396 11.0275 10.1631 11.257 10.1631 11.5631C10.1631 11.87 10.4686 12.0988 10.9272 12.0988V12.6352H7.9473V12.0988C8.71141 12.0988 9.01693 11.8693 9.32244 11.0275L11.6148 4.13515C11.5382 3.8283 11.3086 3.59882 10.8507 3.59882V3.06249H13.2948C14.1286 5.51542 14.969 7.96608 15.8161 10.4144C16.1981 11.7159 16.5802 12.0988 17.1912 12.0988V12.6352H13.1423ZM12.0721 5.20716L10.9259 8.95951H13.2948L12.0721 5.20716Z" fill="black"/>
</g>
<defs>
<clipPath id="clip0_1_157">
<rect width="114" height="17" fill="white"/>
</clipPath>
</defs>
</svg>
