<svg width="97" height="30" viewBox="0 0 97 30" fill="none" xmlns="http://www.w3.org/2000/svg">
<g clip-path="url(#clip0_1_136)">
<path d="M49.1818 1.52797C49.6726 1.45371 50.5573 2.16272 50.6659 2.2661C50.6884 2.28862 50.7092 2.31275 50.7294 2.34006L50.751 2.36853C50.9136 2.5727 50.8482 2.76541 50.7576 3.03077L50.7507 3.05106C50.6771 3.26243 50.3614 4.42495 50.3581 4.43672C50.3496 4.46748 49.3464 7.52998 48.321 11.3057C47.3748 14.7903 46.2146 19.6121 46.0611 22.7944C46.0601 22.8107 46.0578 22.8405 46.0542 22.8817C46.0284 23.1886 45.9502 24.1192 46.0048 25.0412C46.0742 26.2083 46.3261 26.9101 46.7515 27.1267C47.2145 27.2965 47.7206 27.0227 48.3442 26.2646C48.9018 25.5863 49.5591 24.5282 50.5407 22.7257C50.8495 22.1178 52.386 18.8904 53.1101 17.3198L54.8736 13.3412L55.8058 11.2541C55.8287 11.185 56.0574 10.6013 56.3227 10.2241C56.3434 10.1943 56.3643 10.1665 56.3843 10.1406L56.3862 10.138C56.5495 9.92501 56.6931 9.83964 56.8112 9.88086C56.8875 9.90864 56.9611 9.93221 57.0324 9.95512C57.2686 10.031 57.4921 10.1037 57.7486 10.3C57.9051 10.4112 57.9685 10.796 58.0104 11.0505C58.0225 11.1242 58.033 11.1877 58.0431 11.2285C58.1413 11.7979 58.2257 12.3148 58.3049 12.8056C58.4007 13.4479 58.4783 14.1294 58.5683 14.9202C58.7476 16.496 58.9704 18.4568 59.4867 21.5595C59.4896 21.5775 59.4926 21.6001 59.4965 21.6269C59.541 21.9394 59.6594 22.7692 59.984 23.5305C60.3927 24.4902 60.9685 24.9656 61.6949 24.9482C62.2979 24.8795 63.021 24.2235 63.8439 22.9985C64.9406 21.0976 65.7547 18.5252 66.1342 15.7562C66.5327 12.8498 66.4463 9.90965 65.8845 7.25484C65.8633 7.1999 65.3601 5.87575 65.5508 5.58371C65.5712 5.55066 65.6071 5.52823 65.6486 5.52665C66.0586 5.50704 66.108 5.50835 66.2445 5.61042L66.253 5.61663L66.2809 5.70753C68.2414 12.5622 67.3678 19.6216 63.8839 25.0772L63.8678 25.0981C63.4792 25.6062 63.3617 25.7597 62.7921 26.2361C62.3775 26.5328 62.0258 26.6915 61.5782 26.7838C60.8116 26.9418 59.92 26.7546 59.0676 26.2567C58.2464 25.7773 57.5351 25.0124 57.0649 24.1034C56.5558 23.0538 55.9417 19.9946 55.8239 19.3919C55.6799 18.5975 55.6184 18.2533 55.5454 17.7036C55.5153 17.4756 55.4872 17.2387 55.4627 17.0299C55.4473 16.9013 55.4319 16.7731 55.4162 16.6442C55.4129 16.6193 55.4037 16.5179 55.3929 16.4008L55.3907 16.3769C55.3763 16.2205 55.3599 16.0402 55.3537 15.9914C55.3481 15.9747 55.3429 15.9567 55.337 15.9387C55.3311 15.9207 55.3236 15.8942 55.3111 15.8553C55.3046 15.8294 55.2931 15.7814 55.2843 15.7545C54.9401 16.1508 54.1627 17.896 53.2639 19.9134C52.2143 22.2709 51.024 24.9427 49.992 26.7281C49.7041 27.2301 49.247 27.9649 48.6024 28.5457C47.9062 29.1726 47.1091 29.5119 46.2333 29.5544C45.36 29.5531 44.5757 29.1487 43.9648 28.385C43.424 27.7091 43.0376 26.7694 42.8769 25.7394C42.8674 25.6779 42.7081 24.4257 42.6623 23.6405L42.6106 23.7092C42.5752 23.7556 42.5383 23.806 42.5006 23.8538L42.3891 23.9944C41.8267 24.6969 41.1574 25.3102 40.3739 25.8297C39.5465 26.3745 38.6529 26.7569 37.7891 26.9356C36.6194 27.1777 35.4285 27.0177 34.4361 26.4847C33.4261 25.9422 32.7203 25.0601 32.4497 24.0013C32.2596 23.257 32.256 22.44 32.4396 21.5733C32.6244 20.6983 32.9857 19.6451 33.5131 18.4407C33.8507 17.6699 34.7096 16.1308 35.7874 15.2539C36.2415 14.8845 37.9377 14.2403 39.1623 14.6705C39.7811 14.8878 40.1694 15.3452 40.3167 16.03L40.3321 16.1004C40.4053 16.4357 40.4806 16.7825 40.3726 17.112C40.2493 17.4896 39.9725 17.8855 39.5259 18.3226C39.4032 18.4443 39.2651 18.5654 39.1087 18.6923C38.9699 18.8049 38.8152 18.923 38.6212 19.0637C38.4968 19.1527 38.3516 19.2577 38.1978 19.349C38.0862 19.4154 37.9684 19.4759 37.8546 19.5348H37.8516L36.9447 20.0027C36.9001 20.0256 36.8131 20.0642 36.7123 20.1087C36.4683 20.216 36.1342 20.3639 36.0714 20.4359C35.7789 20.7713 35.6866 21.2716 35.5884 21.8009C35.5626 21.9413 35.5361 22.0853 35.5057 22.2263C35.2439 23.4379 35.0712 24.2385 35.2596 25.2129C35.2838 25.3359 35.3205 25.4775 35.4118 25.5927C35.5724 25.7959 35.8816 25.8944 36.3298 25.8849C37.2639 25.8656 38.0689 25.5508 38.9905 25.084C39.5399 24.8055 40.0441 24.4499 40.5319 24.1057L40.8284 23.8972C41.3555 23.5301 41.8113 23.0767 42.2523 22.6382L42.3073 22.5836C42.3848 22.5064 42.4627 22.4226 42.5452 22.3339C42.6175 22.2561 42.692 22.1756 42.7689 22.0977C43.0038 20.5707 43.6059 18.0006 44.4239 15.0412C45.1286 12.4908 45.8779 10.0683 46.2888 9.01242C46.4665 8.55632 46.8549 7.52832 47.2308 6.53398L47.2386 6.51303C47.7674 5.11462 48.3665 3.52939 48.568 3.03207C48.6305 2.8783 48.6577 2.7134 48.6865 2.53868C48.7042 2.43265 48.7221 2.32274 48.749 2.21344L48.7565 2.18236C48.799 1.99812 48.9001 1.57016 49.1818 1.52797ZM10.3226 0.527508C12.2203 0.309277 14.0719 0.538324 15.6823 1.18844C16.3808 1.47112 17.1356 1.96059 17.7014 2.4972C18.4667 3.22323 18.9221 4.05232 19.0152 4.86326C19.0464 5.12244 19.0625 5.38628 19.0625 5.6539C19.0625 6.50762 18.899 7.32316 18.6172 8.0267C18.2864 8.88295 17.7622 9.7261 17.0594 10.5333C15.7804 12.0027 14.1549 13.0828 13.0795 13.7976C12.8266 13.9658 12.6084 14.1108 12.4265 14.2423C11.1174 15.1659 9.59199 15.9044 8.11671 16.6187L7.8821 16.7322C7.7849 16.7793 7.25814 16.9842 7.22281 16.9959C7.19434 17.0074 7.1446 17.0237 7.08178 17.0444C6.85995 17.1173 6.44964 17.2528 6.4346 17.3493C6.31452 18.1192 6.33446 18.8632 6.35541 19.6508C6.3613 19.8638 6.36718 20.0846 6.36979 20.3028C6.37143 20.4363 6.37437 21.4169 6.37797 22.6586C6.38548 25.1946 6.39663 29.0267 6.4084 29.1625C6.4179 29.2688 6.36947 29.3548 6.26335 29.4247C6.15243 29.5032 6.0177 29.5502 5.87129 29.5528C5.80202 29.5524 5.73519 29.5417 5.67713 29.5234C5.3516 29.4268 3.70453 28.1649 3.59785 27.8753C3.55857 27.768 3.5517 27.6499 3.54516 27.5357C3.54418 27.5177 3.5419 27.4997 3.5419 27.4817C3.53699 27.4032 3.52814 27.1856 3.518 26.9337C3.50493 26.6104 3.49019 26.2446 3.47842 26.0483C3.44241 25.4502 3.41067 21.4748 3.49183 17.1664C3.56546 13.3187 3.74408 8.26621 4.18711 6.04819C4.24045 5.78185 5.03453 4.75153 5.80473 4.49535C6.128 4.38671 6.40153 4.42992 6.61878 4.62622C6.81609 4.82807 6.75687 5.71769 6.73755 6.00989C6.73461 6.05277 6.73265 6.08385 6.73265 6.09496C6.732 6.5576 6.64921 8.26487 6.58378 9.63906C6.54874 10.3658 6.51864 10.9959 6.50458 11.3473C6.49412 11.6065 6.48135 11.8741 6.46893 12.1326C6.41722 13.2035 6.36522 14.311 6.46337 15.3858C6.48072 15.5753 6.49478 15.6666 6.55596 15.7062C6.61715 15.7457 6.72677 15.715 6.92013 15.6407C7.10041 15.5713 7.78422 15.1617 8.38756 14.8018C8.68662 14.6225 8.97028 14.4523 9.14468 14.3542C10.1308 13.7927 11.8172 12.2157 13.2431 10.5195C15.6093 7.70572 16.1001 6.04228 16.1806 5.31541C16.193 5.20293 16.1993 5.08865 16.1993 4.97288C16.1993 4.36915 16.027 3.80568 15.7366 3.34198C15.2347 2.52792 14.3598 1.91477 13.1873 1.53436C12.4785 1.30097 11.7211 1.17468 10.9341 1.17468C10.6708 1.17468 10.4107 1.18882 10.1865 1.21361C9.26087 1.30685 8.31595 1.57091 7.37789 1.99625C5.7187 2.75043 4.10961 4.0065 2.84599 5.53414C2.2682 6.23302 1.83302 6.9705 1.55295 7.72631C1.5222 7.80942 1.4682 7.85884 1.39656 7.8693C1.27321 7.88731 1.09786 7.78259 0.974156 7.61933C0.85045 7.45608 0.810543 7.28331 0.86715 7.15702C1.70085 5.29761 3.3332 3.47581 5.23449 2.28746C6.73856 1.34745 8.49787 0.738873 10.3226 0.527508ZM25.6363 12.073C25.7744 12.0406 25.9256 12.0884 26.0617 12.2068C26.2034 12.3302 26.3424 12.46 26.4769 12.5857C26.5367 12.6417 26.5968 12.6976 26.6572 12.7532C26.6762 12.7709 26.6951 12.7889 26.7141 12.8072C26.7517 12.8435 26.7907 12.8815 26.8322 12.9142C27.1921 13.2031 27.3423 13.5951 27.305 14.1474C27.2854 14.4393 27.2726 14.7367 27.2602 15.0239V15.0429C27.2494 15.3233 27.2383 15.6054 27.2275 15.8795C27.2205 16.0597 27.2133 16.2399 27.2059 16.4201C27.1974 16.6297 27.1887 16.8393 27.1797 17.0489L27.147 17.8725C27.131 18.2729 27.1176 18.6705 27.1074 18.9713L27.1074 18.9813C27.1074 19.01 27.1091 19.0383 27.112 19.0628C27.1133 19.0752 27.1153 19.088 27.1153 19.1004L27.1418 19.1082L27.1693 19.0716C27.1909 19.0422 27.2134 19.0117 27.2347 18.9813C27.413 18.7248 27.5936 18.4634 27.768 18.2104C28.1911 17.5973 28.6285 16.9635 29.0712 16.3474C29.2767 16.0612 29.5181 15.7889 29.7514 15.5272C29.8057 15.4665 29.8597 15.4057 29.9134 15.3446C30.2874 14.9196 30.9859 14.93 31.3785 15.2052C31.5846 15.3501 31.8193 15.5324 31.9969 15.7941C32.1353 15.998 32.2861 16.1989 32.4317 16.3952C32.5057 16.494 32.5819 16.5964 32.6559 16.6978L32.6607 16.7045C32.6967 16.7479 32.7257 16.7974 32.747 16.8537C32.7483 16.8618 32.749 16.8701 32.749 16.8786C32.749 16.9024 32.7436 16.925 32.7353 16.9415C32.7306 16.9541 32.7266 16.9669 32.7226 16.9828L32.7206 16.9907L32.7128 16.9887C32.6994 16.9858 32.6843 16.9838 32.6696 16.9819C32.6354 16.9788 32.6046 16.9664 32.5797 16.9474C32.3857 16.7829 32.19 16.614 32.0012 16.4504C31.881 16.347 31.7623 16.245 31.6449 16.1443C31.5762 16.0854 31.5044 16.0298 31.4223 15.9729C31.3468 15.9162 31.253 15.8826 31.1514 15.8826C31.0537 15.8826 30.9632 15.9137 30.8824 15.9709C30.7148 16.0836 30.5626 16.2174 30.4274 16.3713C30.1519 16.6922 29.8888 17.0224 29.6461 17.3528C29.4566 17.6106 29.2852 17.8858 29.1196 18.1521L29.0853 18.2074C29.0022 18.3406 28.9249 18.4747 28.8451 18.6122C28.7653 18.7496 28.6832 18.8919 28.5971 19.0293C28.214 19.6425 28.0262 20.3103 27.8802 20.9405C27.6446 21.961 27.4316 22.9874 27.2258 23.9797C27.1221 24.478 27.0047 25.067 26.917 25.6559C26.8816 25.8931 26.8787 26.1385 26.8787 26.3757C26.8767 26.4425 26.8767 26.5106 26.8767 26.576C26.8709 26.8836 26.8709 27.1963 26.8709 27.499V27.7909C26.8705 27.9142 26.8074 28.0111 26.6765 28.0853C26.4462 28.2162 26.225 28.2378 26.0002 28.1508C25.6298 28.0068 24.7271 27.1443 24.5501 26.9729C24.3133 26.7439 24.1539 26.453 24.0492 26.0568C24.0152 25.9278 24.0194 25.7888 24.0237 25.654C24.0256 25.6327 24.0256 25.6115 24.0256 25.5902C24.0351 25.2074 24.0469 24.818 24.0584 24.4417C24.0662 24.1918 24.0736 23.9418 24.0806 23.6918C24.0829 23.6139 24.0937 23.4114 24.1114 23.1192C23.3808 24.7143 22.6583 26.0086 21.8429 27.1901C21.8043 27.2457 21.7615 27.3096 21.7121 27.3835C21.3162 27.9741 20.579 29.078 19.8254 29.2165C19.7728 29.2266 19.7185 29.2321 19.6625 29.2321C19.4749 29.2306 19.3018 29.1682 19.1643 29.0653C18.3865 28.5133 17.9389 27.9898 17.7135 27.3681C17.4747 26.7108 17.4256 26.0149 17.3961 25.3585C17.3523 24.4156 17.436 23.4624 17.5159 22.5408C17.5515 22.1239 17.5888 21.6943 17.614 21.269C17.6147 21.2568 17.6176 21.2398 17.6176 21.2192C17.63 21.0543 17.6628 20.6231 17.5669 20.4808C17.5286 20.5357 17.49 20.5894 17.4527 20.6414C17.3673 20.7598 17.2868 20.8717 17.2174 20.9905C16.9707 21.4123 16.7227 21.8425 16.4826 22.2587C15.9781 23.1333 15.4562 24.0376 14.919 24.9145C14.6497 25.3539 14.2934 25.7387 13.889 26.1601C13.4139 26.6555 12.8524 26.6738 12.3086 26.2121C12.2484 26.1624 12.1807 26.1071 12.1087 26.0485C11.4952 25.5486 10.4688 24.7113 10.4688 23.4003C10.4692 22.6579 10.5752 21.9162 10.6776 21.1963C10.7181 20.9127 10.76 20.6189 10.7947 20.3296C10.8791 19.6275 10.9753 18.9028 11.0892 18.1146C11.1249 17.8659 11.1789 17.6169 11.2309 17.3751C11.2453 17.3082 11.2598 17.2399 11.2744 17.1702C11.2893 17.0962 11.3172 17.0269 11.3542 16.9675C11.4324 16.8457 11.5241 16.8215 11.651 16.8892C11.9448 17.0453 12.766 17.52 12.8793 17.6015C13.2899 17.8967 13.5556 18.3344 13.6688 18.9034C13.761 19.3664 13.7293 19.796 13.7123 20.027C13.6311 21.1365 13.5915 22.2633 13.5536 23.3532L13.5412 23.7072L13.5411 23.721C13.5411 23.902 13.5571 24.0793 13.585 24.2333C13.5961 24.3106 13.6073 24.39 13.6158 24.4683C13.6161 24.4712 13.6233 24.4794 13.6288 24.4859C13.6344 24.4925 13.6423 24.5013 13.6517 24.5131C13.6717 24.5003 13.6923 24.4879 13.7166 24.4735C13.764 24.4467 13.8087 24.4156 13.8487 24.3819C14.3915 23.8931 14.7842 23.292 15.1637 22.7106C15.223 22.6194 15.2827 22.5284 15.3427 22.4377C15.6051 22.0412 17.3271 19.2293 17.6801 18.177C17.9232 17.4517 18.2252 16.7299 18.5174 16.032C18.6342 15.7542 18.755 15.466 18.8701 15.1813C18.9614 14.9559 19.1764 14.8669 19.4453 14.9431C19.9204 15.0766 20.206 15.3812 20.3696 15.9273C20.5178 16.4207 20.471 17.9356 20.4383 19.0415C20.4318 19.2486 20.4259 19.4433 20.4223 19.6069C20.4039 20.4608 20.3251 21.9973 20.2404 22.9236C20.1834 23.5452 20.1573 24.1767 20.1317 24.7886C20.12 25.1059 20.1049 25.4341 20.0872 25.7564C20.0771 25.9465 20.062 26.1392 20.0477 26.3257C20.029 26.5668 20.0097 26.8165 19.9999 27.0622C19.9963 27.1535 20.0369 27.3043 20.1108 27.3426C20.2273 27.4044 20.3421 27.3053 20.4177 27.2117C20.525 27.0789 20.6278 26.9533 20.7259 26.8319C21.184 26.2665 21.5815 25.7783 22.0347 25.1118C22.462 24.4836 22.8075 23.8145 23.1419 23.1673C23.2348 22.9871 23.33 22.8006 23.4281 22.617C23.7687 21.9754 24.0115 21.2919 24.2461 20.6307L24.2851 20.5207C24.3652 19.3906 24.5622 16.6952 24.6623 16.0569C24.7303 15.6122 24.7954 15.1594 24.8586 14.7213C24.9342 14.1984 25.0117 13.6582 25.0978 13.1279C25.1413 12.8596 25.2434 12.5919 25.3471 12.3426C25.4073 12.1983 25.51 12.1024 25.6363 12.073ZM95.7049 12.4415C95.8492 12.4297 96.0269 12.4274 96.1302 12.5256C96.1944 12.5858 96.163 12.6986 96.13 12.7785C96.1251 12.7958 96.1208 12.8119 96.1175 12.8259C96.0953 12.927 96.0361 13.1318 95.9539 13.4149L95.9019 13.5948L95.6402 14.5191C95.1749 16.1557 94.6943 17.8479 94.2035 19.5074C93.8282 20.7769 93.4143 22.139 92.9304 23.4955L92.9071 23.561C92.4802 24.7578 92.0388 25.9953 91.3713 27.0891C91.1197 27.501 90.8678 27.8966 90.5494 28.191C90.1895 28.5257 89.7825 28.6939 89.3061 28.7047H89.2636C88.7064 28.7047 88.1112 28.4528 87.5825 27.9947C87.0783 27.557 86.6932 26.9818 86.5296 26.4157H86.5266V26.4102C86.5165 26.3748 86.507 26.3385 86.4982 26.3022C86.1229 24.7336 85.941 22.8225 86.0116 21.1905C86.0215 20.9631 86.0404 20.0169 86.0515 19.4515C86.0561 19.226 86.0601 19.0696 86.0592 19.0366C86.0475 19.031 86.0368 19.0239 86.0273 19.0156C86.0126 19.0039 85.9962 18.9914 85.9832 18.995C85.9701 18.9986 85.956 19.0088 85.9403 19.0313C85.4479 19.7381 84.3904 21.305 84.3577 21.3596C84.1441 21.6538 83.7805 22.2787 83.6438 22.514C83.6121 22.5686 83.5927 22.602 83.5878 22.6095C83.47 22.7855 83.2342 23.1739 83.0621 23.4576C82.9413 23.6572 82.854 23.8008 82.8406 23.8175C82.4986 24.3871 82.0239 24.8733 81.4297 25.2614C81.397 25.2826 80.617 25.777 79.711 25.0474C79.126 24.5762 78.7756 24.1074 78.612 23.5714C78.5354 23.1088 78.6159 22.5872 78.6941 22.0827L78.7007 22.0405C78.7645 21.6276 78.8482 21.2124 78.9493 20.806C78.9591 20.769 78.9699 20.7262 78.982 20.6784C79.0674 20.3401 79.2431 19.6451 79.2042 19.5575C79.1649 19.5804 79.0095 19.6599 78.7608 19.7865L75.716 21.4002C75.6892 21.4188 75.6378 21.4535 75.6371 21.4557C75.6241 21.5431 75.6174 21.6325 75.6174 21.7235L75.6175 21.7428C75.6169 21.801 75.6159 21.8556 75.6103 21.924C75.5744 22.3223 75.4874 22.7058 75.3553 23.0704C75.1224 23.7084 74.7616 24.2848 74.3061 24.7663L74.2008 24.8782C73.7421 25.3651 73.2673 25.8689 72.7117 26.2449C72.2894 26.5391 71.799 26.7423 71.2666 26.8266C71.1097 26.8512 70.9489 26.8639 70.7852 26.8639C70.4427 26.8639 70.1133 26.8083 69.8272 26.7118C68.899 26.4094 68.1664 25.6811 67.8173 24.7139C67.4551 23.7108 67.5297 22.6294 67.6347 21.7993C67.9325 19.4504 68.6952 17.2134 69.7978 15.4726C69.9339 15.2338 70.0863 15.0055 70.2437 14.8027C70.2879 14.7455 70.3206 14.7003 70.3534 14.6509C70.6809 14.2282 70.9704 14.1339 71.4226 14.3028C71.8496 14.4621 72.2138 14.7543 72.5082 15.1718L72.5197 15.1689V15.1852L72.5252 15.1928L72.5344 15.2052C72.5779 15.2611 72.5625 15.32 72.5452 15.3825C72.5426 15.392 72.5399 15.4018 72.5373 15.412C72.3996 15.8619 72.2769 16.2859 72.1625 16.7089C72.1695 16.7306 72.1848 16.7487 72.2052 16.7593C72.236 16.7717 72.2769 16.7528 72.3286 16.7292C72.4922 16.654 72.7248 16.5944 72.9578 16.5364C73.0936 16.5038 73.2268 16.4643 73.3285 16.4272C73.6972 16.2852 74.0424 16.2289 74.3843 16.2525C74.8142 16.2826 75.1041 16.4429 75.2707 16.7433C75.4238 17.0194 75.4617 17.3918 75.4876 17.7494L75.5229 18.2212C75.5769 18.9319 75.6322 19.6667 75.6322 20.3924V20.4418C75.6309 20.4732 75.6332 20.4975 75.6368 20.5004C75.6404 20.5034 75.6483 20.5034 75.6623 20.5034L76.2608 20.1997C76.6017 20.0145 76.9694 19.8172 77.3405 19.6248L77.3532 19.618H77.3431L77.3667 19.6059C77.8077 19.3775 78.2481 19.1557 78.7736 18.8939L78.8187 18.8704V18.8772L79.3148 18.6306C79.3959 18.5969 79.4556 18.5221 79.4682 18.4309C79.5264 18.1679 79.6923 17.4484 79.8536 16.7541C80.0149 16.0598 80.1674 15.4038 80.1872 15.2997C80.2149 15.1455 80.3079 15.0139 80.439 14.9333C80.6228 14.8204 80.8829 14.8008 81.1525 14.8786C81.6034 15.0075 82 15.2837 82.3272 15.6947C82.3756 15.7467 82.3638 15.8069 82.3511 15.8704C82.3491 15.8802 82.3468 15.8903 82.3452 15.9005C82.2879 16.2519 82.2254 16.6088 82.1649 16.9543C82.0808 17.435 81.9938 17.93 81.9192 18.4208C81.8855 18.6413 81.8047 19.1098 81.7206 19.6013L81.6784 19.848C81.5655 20.5034 81.4588 21.1224 81.4516 21.2055L81.2461 22.5234L81.2245 22.6566C81.1768 22.9484 81.1271 23.2501 81.1889 23.5465C81.1993 23.5956 81.219 23.6257 81.2481 23.6362C81.322 23.6634 81.4438 23.5652 81.5246 23.4998C81.5403 23.4877 81.5547 23.4762 81.5668 23.4671C81.7411 23.26 82.3628 22.5247 82.8863 21.8121C83.6389 20.7864 84.5785 19.4973 84.7186 19.2872C84.7644 19.2463 85.5581 18.0445 85.8569 17.4533C86.1644 16.8421 87.2939 14.5819 87.3423 14.4645C87.4254 14.2606 87.5415 14.1291 87.6871 14.0718C87.8386 14.0123 88.0251 14.0332 88.2407 14.1314C88.5614 14.2776 88.8811 14.4913 89.2158 14.7858C89.4072 14.9546 89.4311 15.1869 89.4549 15.4208C89.4628 15.5144 89.4766 15.6062 89.4932 15.6816C89.5466 15.9149 89.3126 17.4396 89.1867 18.2576C89.166 18.3904 89.1483 18.5046 89.1356 18.5907C89.0109 19.425 88.9196 20.276 88.864 21.1202C88.7969 22.138 88.7803 23.1716 88.8149 24.1928C88.8218 24.4218 88.8218 24.6548 88.8218 24.8799C88.8211 25.1609 88.8205 25.4515 88.8362 25.7474C88.8482 26.0239 88.8824 26.2948 88.9314 26.5253C88.9848 26.7763 89.0973 27.1061 89.3263 27.251C89.4448 27.326 89.5842 27.3446 89.7412 27.3073C90.0291 27.2383 90.2461 27.0089 90.4201 26.7933C90.9944 26.0823 91.3919 25.2297 91.705 24.4896C92.2966 23.0908 92.7805 21.6273 93.2156 20.2531C93.9643 17.8888 94.6667 15.4745 95.3035 13.0769C95.346 12.9179 95.382 12.7981 95.4036 12.7265L95.4104 12.7032C95.4477 12.5396 95.5413 12.4549 95.7049 12.4415ZM74.6602 21.8486C74.4897 21.9046 74.323 21.9692 74.1932 22.0291C74.0964 22.07 73.9963 22.1122 73.905 22.1474C73.5343 22.2889 73.1319 22.3664 72.7114 22.3664C72.2338 22.3664 71.7795 22.2664 71.3738 22.0878C71.29 22.0484 71.2086 22.0048 71.1415 21.9637L71.0874 21.9329C71.0707 21.9222 71.0512 21.9156 71.03 21.9143C71.0209 21.9143 71.0129 21.9162 71.0061 21.9195C70.9662 21.9388 70.9491 22.0124 70.9387 22.0746C70.8843 22.4018 70.8241 22.7342 70.7659 23.0561C70.71 23.365 70.6524 23.6841 70.5994 24.0004C70.5045 24.5678 70.511 25.0327 70.6203 25.4636C70.6626 25.6315 70.7437 25.6776 70.9187 25.6344C71.4952 25.4918 72.1152 25.1463 72.5033 24.8701C73.0412 24.488 73.4332 23.9752 73.8121 23.4792C73.885 23.384 73.9609 23.2858 74.0365 23.1877C74.2639 22.8968 74.4425 22.5611 74.5983 22.1358C74.6051 22.1171 74.614 22.0946 74.6231 22.0703C74.6536 21.9905 74.6948 21.8835 74.6602 21.8486ZM72.1848 17.2577C72.1731 17.2577 72.1615 17.2583 72.1506 17.2594C72.0895 17.2655 72.0356 17.2963 71.9988 17.3421C71.9455 17.5548 71.9032 17.7289 71.8656 17.8924C71.7818 18.2615 71.6748 18.6302 71.5711 18.9872C71.4069 19.5516 71.2367 20.1383 71.1536 20.7295C71.1422 20.81 71.1533 20.8587 71.2495 20.935C71.4677 21.1094 71.6179 21.1751 71.8901 21.2949L71.9854 21.3367C72.3005 21.4761 73.0861 21.5065 73.4062 21.4808C73.9015 21.4397 74.3521 21.2408 74.7044 20.9369C74.7773 20.8721 74.8074 20.6791 74.8074 20.5649C74.8084 20.4864 74.8113 20.4402 74.8112 20.4105C74.8123 20.3895 74.8128 20.3683 74.8128 20.347C74.8128 20.3015 74.8103 20.2565 74.8061 20.2178C74.7753 19.6485 74.7426 19.3762 74.688 18.9254L74.6848 18.8843C74.6573 18.6881 74.6191 18.4953 74.5787 18.3433C74.4743 17.9 74.2855 17.7488 73.7695 17.7037C73.7169 17.6991 73.6639 17.6952 73.6109 17.6909C73.1927 17.6585 72.7598 17.6248 72.4102 17.3406C72.3495 17.2889 72.2708 17.2577 72.1848 17.2577ZM37.7256 16.4434C37.6435 16.4571 37.5748 16.5173 37.5126 16.5707C37.4982 16.5844 37.4809 16.5982 37.4655 16.6102L37.3729 16.6838C37.1122 16.8906 36.8422 17.1039 36.6655 17.3657C36.5363 17.5574 36.4679 17.7439 36.4623 17.9196C36.462 17.9245 36.4604 17.935 36.4604 17.9491C36.4581 17.9887 36.4496 18.0944 36.4581 18.1091C36.4731 18.1352 36.5271 18.1212 36.55 18.1153L36.5634 18.1123C36.6881 18.0996 36.8321 18.0044 36.9476 17.9278L36.997 17.8951C37.1361 17.8051 37.6376 17.3532 37.7466 17.2103C37.797 17.1441 37.9998 16.8438 38.0165 16.7653C38.028 16.7061 37.9887 16.6188 37.9164 16.5415C37.8509 16.4735 37.7757 16.4349 37.7256 16.4434Z" fill="black"/>
</g>
<defs>
<clipPath id="clip0_1_136">
<rect width="97" height="30" fill="white"/>
</clipPath>
</defs>
</svg>
