<svg width="83" height="22" viewBox="0 0 83 22" fill="none" xmlns="http://www.w3.org/2000/svg">
<g clip-path="url(#clip0_1_154)">
<path d="M20.4979 21.9397C19.0597 21.7263 17.8019 21.1058 16.8413 20.1359C16.0401 19.327 15.5206 18.4373 15.1377 17.2184C14.5398 15.3153 14.5396 12.8685 15.1371 11.0041C15.7162 9.19743 17.0201 7.62474 18.6159 6.80822C20.8258 5.67746 23.9362 5.7485 25.983 6.97647C27.8251 8.0816 28.9408 10.0453 29.2513 12.7282C29.3461 13.5473 29.2846 15.2776 29.1353 15.9917C28.5243 18.915 26.7448 20.957 24.1378 21.7266C23.8568 21.8095 23.4211 21.9066 23.1697 21.9422C22.6375 22.0177 21.0131 22.0161 20.4979 21.9397ZM22.6496 20.7659C23.0697 20.6387 23.5879 20.1433 23.8642 19.6048C24.4346 18.4931 24.6893 16.8491 24.6957 14.2385C24.7036 10.9669 24.2004 8.88506 23.1384 7.79504C22.6924 7.33727 22.3761 7.19514 21.8059 7.19605C20.5404 7.1981 19.7372 8.54475 19.4199 11.1963C19.274 12.4152 19.2733 15.319 19.4185 16.3846C19.868 19.6827 21.0286 21.2565 22.6496 20.7659ZM45.971 21.9389C45.3826 21.8781 43.5845 21.5731 42.9564 21.4275L42.5219 21.3268L42.5558 18.9616C42.6374 13.267 42.6476 10.1582 42.5948 7.13499C42.5431 4.17339 42.528 3.86029 42.4159 3.42216C42.2739 2.86706 42.069 2.4799 41.8226 2.30101C41.7268 2.23155 41.4667 2.13307 41.2445 2.08216C40.506 1.91307 40.5461 1.94015 40.5264 1.59677C40.5151 1.39895 40.5361 1.26825 40.5857 1.22817C40.6523 1.17436 46.7096 -0.00331803 46.9026 7.02763e-06C46.958 0.000974319 46.9659 0.790404 46.9374 3.50771C46.9173 5.43624 46.9147 7.01414 46.9317 7.01414C46.9487 7.01414 47.17 6.91644 47.4236 6.79704C48.1878 6.43715 48.8922 6.28099 49.9152 6.2446C50.5963 6.22041 50.9119 6.23559 51.2613 6.30922C53.5461 6.79112 55.237 8.69734 55.8279 11.4576C55.982 12.1776 56.0393 13.9672 55.937 14.8635C55.8498 15.6275 55.6009 16.6569 55.342 17.3248C54.3647 19.8455 52.2681 21.49 49.4866 21.9174C48.846 22.0157 46.8341 22.0281 45.971 21.9389ZM48.3481 20.7367C48.779 20.6533 49.1137 20.4785 49.4731 20.1491C50.3739 19.3237 51.0511 17.6195 51.3175 15.508C51.4259 14.648 51.4114 12.6884 51.2911 11.9706C50.9659 10.0294 50.267 8.75345 49.2475 8.23969C48.8246 8.02659 48.7594 8.0116 48.2577 8.0116C47.8989 8.0116 47.5903 8.05071 47.3279 8.12954L46.9351 8.24749L46.9061 10.4571C46.8689 13.2875 46.9593 20.3736 47.0351 20.5769C47.0835 20.7066 47.1368 20.7342 47.3769 20.7534C47.9421 20.7987 48.0356 20.797 48.3481 20.7367ZM63.023 21.909C60.0805 21.3681 57.9762 19.2411 57.2886 16.1131C57.2001 15.7109 57.1611 15.2606 57.1389 14.3897C57.1038 13.0118 57.2137 12.1565 57.5626 11.0939C58.2325 9.05349 59.4329 7.60763 61.1768 6.74106C63.0174 5.82643 65.5339 5.76651 67.1628 6.59856C68.9968 7.53539 70.0759 9.40595 70.3497 12.1226C70.3866 12.4884 70.4079 12.9236 70.3972 13.0899L70.3777 13.3921L65.9887 13.4076L61.5996 13.4232L61.6163 13.9517C61.6551 15.1762 61.9133 16.2593 62.3911 17.2008C62.6082 17.6289 62.781 17.8622 63.201 18.2942C64.1495 19.2705 65.0931 19.6483 66.5817 19.6483C67.661 19.6483 68.4372 19.4288 69.2489 18.8939C69.4763 18.744 69.7067 18.6215 69.7609 18.6215C69.8848 18.6215 70.17 18.9958 70.17 19.1584C70.17 19.4249 69.3191 20.2839 68.4891 20.8554C67.8093 21.3234 66.7312 21.7474 65.7964 21.914C65.1417 22.0308 63.6709 22.0281 63.023 21.909ZM64.8853 12.0548L65.9172 12.0182L65.88 11.2711C65.749 8.63646 65.1165 7.19665 64.0906 7.19786C62.9756 7.19913 62.0845 8.66022 61.7141 11.0949C61.6685 11.3941 61.6308 11.749 61.6302 11.8835L61.6292 12.1281L62.7412 12.1098C63.3529 12.0995 64.3177 12.0749 64.8853 12.0548ZM74.8853 21.9677C73.8286 21.8522 72.1469 21.4769 71.5869 21.2315L71.3135 21.1118L71.2761 19.7307C71.2556 18.9711 71.232 17.9554 71.2236 17.4737L71.2083 16.5979L71.3722 16.5178C71.4624 16.4737 71.6443 16.4326 71.7766 16.4263L72.0169 16.4149L72.2217 16.9288C73.0209 18.9335 73.958 20.0144 75.1821 20.3432C75.649 20.4687 76.5246 20.4697 76.8703 20.3453C77.8386 19.9969 78.3696 19.2495 78.3742 18.2286C78.3797 17.0195 77.7277 16.4386 75.2644 15.4578C73.7383 14.8501 73.206 14.5375 72.5721 13.8761C71.8883 13.1627 71.5601 12.3507 71.4985 11.2197C71.4241 9.85301 71.8436 8.70085 72.7736 7.71911C73.7093 6.73108 74.9241 6.19557 76.579 6.04165C78.0363 5.90611 80.2733 6.22114 81.4453 6.72697L81.6591 6.81923L81.6973 8.05023C81.7183 8.72727 81.74 9.63483 81.7455 10.0671L81.7556 10.8529L81.4684 10.9616C81.0144 11.1335 80.9845 11.1119 80.732 10.4299C80.024 8.51803 79.2016 7.61343 77.92 7.33709C77.139 7.16866 76.4866 7.34973 76.0123 7.8665C75.6424 8.26962 75.498 8.62764 75.4631 9.22881C75.4252 9.88016 75.5394 10.2322 75.9298 10.6677C76.411 11.2044 77.1995 11.6677 78.7701 12.3367C80.6938 13.1561 81.6116 13.8517 82.1105 14.8683C82.4346 15.5286 82.5264 16.0559 82.4938 17.071C82.4693 17.8328 82.4454 17.9893 82.2754 18.5007C81.7211 20.1681 80.4698 21.2658 78.5367 21.7805C77.882 21.9548 77.7885 21.9638 76.4866 21.9784C75.7364 21.9866 75.0157 21.9819 74.8853 21.9677ZM0.0788248 21.6043C0.0295371 21.584 0.00468559 21.4333 0.00468559 21.1545C0.00468559 20.6535 -0.0265716 20.6759 0.924011 20.4962C1.65319 20.3583 1.91398 20.2173 2.23598 19.787C2.86023 18.9527 2.99516 17.3464 2.99659 10.7322C2.99789 4.52058 2.88046 3.21389 2.23485 2.25386C1.94838 1.82795 1.46564 1.59664 0.657051 1.49798L0.034282 1.42199L0.0172003 0.926369L0 0.430814L0.195134 0.395387C0.302488 0.37592 4.07273 0.367698 8.57357 0.377069L16.7569 0.394238L16.7952 0.636061C16.8164 0.769063 16.851 2.13331 16.8722 3.66767L16.9108 6.45746L16.4889 6.58811C15.8538 6.78471 15.8576 6.78713 15.5719 6.01656C14.8701 4.12381 14.0654 3.03319 12.9642 2.48244C12.2047 2.1026 11.8536 2.05671 9.70885 2.05671H7.84232L7.81012 2.3741C7.74974 2.96929 7.65454 6.79801 7.6552 8.60104L7.65585 10.3996L8.20448 10.3964C8.50625 10.3946 9.10127 10.372 9.52677 10.3461C10.1663 10.3071 10.3564 10.2725 10.624 10.1462C11.2815 9.83597 11.7287 9.15318 12.0028 8.0414L12.1443 7.46743L12.6284 7.44984L13.1125 7.43225V14.6968L12.6282 14.6792L12.1439 14.6616L12.0064 14.0873C11.7482 13.0081 11.2511 12.2356 10.6369 11.9587C10.3532 11.8308 9.65132 11.7581 8.29345 11.716L7.65585 11.6962V13.0608C7.65585 14.5477 7.7361 16.5594 7.83888 17.6512C7.98218 19.1732 8.36379 20.0142 9.04901 20.3185C9.17985 20.3766 9.59391 20.471 9.96899 20.5283C10.3441 20.5855 10.6978 20.657 10.7549 20.6871C10.8996 20.7633 10.9082 21.5515 10.7649 21.6075C10.6527 21.6515 0.185704 21.6482 0.0788248 21.6043ZM29.3164 21.5928C29.2623 21.5578 29.2446 21.4183 29.2571 21.125L29.2749 20.7073L29.4825 20.6623C29.5966 20.6375 29.8419 20.5882 30.0274 20.5529C30.6017 20.4436 30.9317 20.1259 31.1175 19.5035C31.2688 18.9966 31.3355 17.3747 31.3389 14.1176C31.3432 10.1342 31.2618 9.1935 30.8666 8.66028C30.6524 8.37125 30.4981 8.28909 29.9784 8.1874C29.7219 8.13722 29.452 8.08342 29.3787 8.06782C29.2598 8.04261 29.2452 8.00313 29.2452 7.70684C29.2452 7.41877 29.2631 7.36671 29.3787 7.31823C29.5561 7.24387 35.4319 6.04673 35.6196 6.04673H35.766L35.7373 6.93845C35.7215 7.42886 35.6963 8.14303 35.6812 8.52541L35.6538 9.22065L35.8667 8.82938C36.5481 7.57686 37.3123 6.79928 38.3285 6.32464C38.8863 6.06402 39.2585 5.98627 39.9477 5.98627C40.765 5.98627 41.5821 6.25808 41.5821 6.53001C41.5821 6.71283 40.1421 10.5912 40.0627 10.6222C40.0239 10.6373 39.7427 10.5277 39.4378 10.3785C38.8019 10.0675 38.2053 9.91547 37.6262 9.91674C36.905 9.91831 36.0994 10.1891 35.7813 10.5368C35.6453 10.6855 35.6446 10.6945 35.6108 12.9157C35.5774 15.1154 35.6493 17.7985 35.7706 18.8776C35.874 19.797 36.1137 20.2496 36.6086 20.4604C36.7737 20.5306 37.8184 20.6766 38.1594 20.6769C38.1852 20.6769 38.1985 20.8878 38.189 21.1455L38.1717 21.614L33.7827 21.6284C31.3686 21.6364 29.3588 21.6205 29.3164 21.5928Z" fill="black"/>
</g>
<defs>
<clipPath id="clip0_1_154">
<rect width="83" height="22" fill="white"/>
</clipPath>
</defs>
</svg>
