<svg width="177" height="30" viewBox="0 0 177 30" fill="none" xmlns="http://www.w3.org/2000/svg">
<g clip-path="url(#clip0_1_151)">
<path d="M60.46 11.0821V0.367085C60.4619 0.318225 60.4536 0.269513 60.4356 0.22402C60.4177 0.178528 60.3906 0.13724 60.3559 0.102761C60.3212 0.0682812 60.2798 0.0413571 60.2342 0.0236855C60.1886 0.00601389 60.1399 -0.00202192 60.091 8.45524e-05H58.193C58.1443 -0.00173869 58.0958 0.00650688 58.0505 0.0243052C58.0051 0.0421034 57.9639 0.0690713 57.9295 0.103521C57.895 0.13797 57.868 0.17916 57.8502 0.224511C57.8324 0.269863 57.8242 0.3184 57.826 0.367085V21.4301C57.826 21.6441 57.979 21.7971 58.193 21.7971H60.091C60.1397 21.7989 60.1882 21.7907 60.2336 21.7729C60.279 21.7551 60.3201 21.7281 60.3546 21.6936C60.389 21.6592 60.416 21.618 60.4338 21.5727C60.4516 21.5273 60.4599 21.4788 60.458 21.4301V20.5421C60.458 20.3281 60.55 20.2971 60.703 20.4501C61.683 21.5521 63.03 22.1341 64.743 22.1341C66.428 22.1341 67.836 21.5211 68.938 20.2971C70.04 19.0721 70.591 17.5721 70.591 15.7971C70.591 14.0211 70.04 12.5521 68.938 11.3271C67.836 10.1031 66.458 9.49109 64.744 9.49109C63.03 9.49109 61.683 10.0411 60.704 11.1741C60.581 11.2971 60.458 11.2661 60.458 11.0831L60.46 11.0821ZM60.337 15.8271C60.3373 14.8124 60.7404 13.8392 61.4579 13.1216C62.1753 12.404 63.1483 12.0006 64.163 12.0001C65.1779 12.0003 66.1512 12.4036 66.8688 13.1213C67.5865 13.8389 67.9898 14.8122 67.99 15.8271C67.9895 16.8418 67.5861 17.8148 66.8685 18.5322C66.1509 19.2497 65.1778 19.6528 64.163 19.6531C63.1485 19.6526 62.1756 19.2493 61.4582 18.5319C60.7408 17.8145 60.3376 16.8416 60.337 15.8271ZM130.102 11.5711C130.99 10.3471 132.612 9.49008 134.327 9.49008H134.449C134.51 9.49008 134.571 9.67308 134.571 9.88808V11.7861C134.571 12.0001 134.418 12.1221 134.204 12.1221H133.837C132.122 12.1221 130.714 13.0411 130.071 14.1421C129.98 14.3271 129.888 14.6321 129.888 14.8471V21.4291C129.89 21.4779 129.882 21.5265 129.864 21.5719C129.846 21.6173 129.819 21.6586 129.784 21.693C129.75 21.7275 129.708 21.7544 129.663 21.7722C129.617 21.7899 129.569 21.798 129.52 21.7961H127.622C127.573 21.7979 127.525 21.7897 127.479 21.7719C127.434 21.7541 127.393 21.7271 127.358 21.6926C127.324 21.6582 127.297 21.617 127.279 21.5717C127.261 21.5263 127.253 21.4778 127.255 21.4291V10.1631C127.255 9.94909 127.408 9.79608 127.622 9.79608H129.52C129.735 9.79608 129.888 9.94909 129.888 10.1631V11.5101C129.888 11.7241 129.98 11.7241 130.102 11.5711ZM141.551 9.49008C139.714 9.49008 138.245 10.1021 137.112 11.2961C135.949 12.4901 135.398 14.0201 135.398 15.7961C135.398 17.6941 136.041 19.1941 137.296 20.3571C138.582 21.5201 140.143 22.1331 142.01 22.1331C143.694 22.1331 145.071 21.7961 146.143 21.1531C146.327 21.0611 146.449 20.7861 146.449 20.5711V19.0711C146.449 18.8571 146.296 18.7961 146.143 18.8881C145.052 19.4748 143.831 19.78 142.592 19.7761C140.296 19.7761 138.612 18.7041 138.153 16.8981C138.092 16.7141 138.245 16.5311 138.459 16.5311H146.909C147.122 16.5311 147.276 16.3781 147.276 16.1941V15.8571C147.276 13.6841 146.51 11.6941 144.735 10.4391C143.816 9.79609 142.775 9.48909 141.551 9.48909V9.49008ZM138.091 14.3571C138.337 12.8871 139.561 11.7241 141.398 11.7241C142.378 11.7241 143.143 12.0311 143.694 12.6121C144.214 13.1321 144.459 13.7451 144.52 14.3881C144.521 14.4163 144.515 14.4444 144.505 14.4706C144.494 14.4968 144.479 14.5206 144.459 14.5406C144.439 14.5606 144.415 14.5763 144.389 14.5869C144.362 14.5975 144.334 14.6026 144.306 14.6021H138.245C138.153 14.5721 138.061 14.4801 138.092 14.3571H138.091ZM154.776 9.49008C152.939 9.49008 151.469 10.1021 150.336 11.2961C149.173 12.4901 148.622 14.0201 148.622 15.7961C148.622 17.6941 149.265 19.1941 150.52 20.3571C151.806 21.5201 153.367 22.1331 155.235 22.1331C156.918 22.1331 158.295 21.7961 159.367 21.1531C159.551 21.0611 159.673 20.7861 159.673 20.5711V19.0711C159.673 18.8571 159.52 18.7961 159.367 18.8881C158.276 19.4746 157.056 19.7798 155.817 19.7761C153.52 19.7761 151.837 18.7041 151.377 16.8981C151.317 16.7141 151.469 16.5311 151.684 16.5311H160.102C160.316 16.5311 160.469 16.3781 160.469 16.1941V15.8571C160.469 13.6841 159.704 11.6941 157.929 10.4391C157.041 9.79609 156 9.48909 154.776 9.48909V9.49008ZM151.346 14.3571C151.592 12.8871 152.816 11.7241 154.653 11.7241C155.633 11.7241 156.398 12.0311 156.949 12.6121C157.469 13.1321 157.714 13.7451 157.776 14.3881C157.777 14.4164 157.771 14.4446 157.761 14.4709C157.75 14.4971 157.734 14.521 157.714 14.541C157.694 14.561 157.67 14.5767 157.644 14.5872C157.618 14.5977 157.589 14.6028 157.561 14.6021H151.531C151.408 14.5721 151.316 14.4801 151.347 14.3571H151.346ZM78.185 9.49008C77.3566 9.4889 76.536 9.6512 75.7704 9.96769C75.0048 10.2842 74.3092 10.7486 73.7234 11.3344C73.1376 11.9202 72.6731 12.6159 72.3566 13.3815C72.0401 14.1471 71.8778 14.9676 71.879 15.7961C71.8778 16.6245 72.0401 17.4451 72.3566 18.2107C72.6731 18.9763 73.1376 19.6719 73.7234 20.2577C74.3092 20.8435 75.0048 21.308 75.7704 21.6245C76.536 21.941 77.3566 22.1033 78.185 22.1021C79.0135 22.1033 79.834 21.941 80.5996 21.6245C81.3652 21.308 82.0609 20.8435 82.6467 20.2577C83.2325 19.6719 83.6969 18.9763 84.0134 18.2107C84.3299 17.4451 84.4922 16.6245 84.491 15.7961C84.4922 14.9676 84.3299 14.1471 84.0134 13.3815C83.6969 12.6159 83.2325 11.9202 82.6467 11.3344C82.0609 10.7486 81.3652 10.2842 80.5996 9.96769C79.834 9.6512 79.0135 9.4889 78.185 9.49008ZM78.185 19.5611C77.6904 19.5615 77.2006 19.4644 76.7436 19.2753C76.2866 19.0863 75.8713 18.809 75.5215 18.4593C75.1718 18.1096 74.8944 17.6944 74.7052 17.2374C74.516 16.7805 74.4188 16.2907 74.419 15.7961C74.4188 15.3015 74.516 14.8117 74.7052 14.3547C74.8944 13.8978 75.1718 13.4826 75.5215 13.1329C75.8713 12.7832 76.2866 12.5059 76.7436 12.3169C77.2006 12.1278 77.6904 12.0307 78.185 12.0311C78.6795 12.0308 79.1692 12.128 79.6261 12.3171C80.083 12.5063 80.4982 12.7836 80.8479 13.1332C81.1975 13.4829 81.4748 13.8981 81.664 14.355C81.8531 14.8119 81.9503 15.3016 81.95 15.7961C81.9503 16.2906 81.8531 16.7803 81.664 17.2372C81.4748 17.6941 81.1975 18.1093 80.8479 18.4589C80.4982 18.8086 80.083 19.0859 79.6261 19.275C79.1692 19.4641 78.6795 19.5613 78.185 19.5611ZM52.317 11.1731C51.337 10.0711 49.991 9.49008 48.277 9.49008C46.593 9.49008 45.185 10.1021 44.083 11.3271C42.981 12.5511 42.43 14.0511 42.43 15.7961C42.43 17.5711 42.98 19.0711 44.083 20.2961C45.185 21.5201 46.563 22.1331 48.277 22.1331C49.991 22.1331 51.337 21.5821 52.317 20.4491C52.44 20.2961 52.562 20.3271 52.562 20.5411V21.4291C52.562 21.6431 52.715 21.7961 52.93 21.7961H54.828C54.8767 21.7979 54.9252 21.7897 54.9706 21.7719C55.016 21.7541 55.0571 21.7271 55.0916 21.6926C55.126 21.6582 55.153 21.617 55.1708 21.5717C55.1886 21.5263 55.1968 21.4778 55.195 21.4291V0.367085C55.1969 0.318312 55.1886 0.269688 55.1707 0.224266C55.1529 0.178844 55.1258 0.137606 55.0913 0.103142C55.0567 0.068677 55.0154 0.041731 54.9699 0.0239959C54.9244 0.00626086 54.8758 -0.00188004 54.827 8.45524e-05H52.929C52.8803 -0.00188004 52.8316 0.00626086 52.7861 0.0239959C52.7407 0.041731 52.6994 0.068677 52.6648 0.103142C52.6302 0.137606 52.6032 0.178844 52.5853 0.224266C52.5675 0.269688 52.5592 0.318312 52.561 0.367085V11.0821C52.561 11.2651 52.469 11.2961 52.316 11.1731H52.317ZM48.858 19.6531C47.8435 19.6526 46.8706 19.2493 46.1532 18.5319C45.4358 17.8145 45.0326 16.8416 45.032 15.8271C45.0323 14.8125 45.4353 13.8396 46.1525 13.122C46.8697 12.4044 47.8425 12.0009 48.857 12.0001C49.8719 12.0003 50.8452 12.4036 51.5628 13.1213C52.2805 13.8389 52.6838 14.8122 52.684 15.8271C52.6835 16.8418 52.2801 17.8148 51.5625 18.5322C50.8449 19.2497 49.8718 19.6528 48.857 19.6531H48.858ZM95.664 11.1731C94.684 10.0711 93.338 9.49008 91.624 9.49008C89.94 9.49008 88.532 10.1021 87.43 11.3271C86.328 12.5511 85.777 14.0511 85.777 15.7961C85.777 17.5711 86.327 19.0711 87.43 20.2961C88.532 21.5201 89.91 22.1331 91.623 22.1331C93.338 22.1331 94.685 21.5821 95.664 20.4491C95.787 20.2961 95.909 20.3271 95.909 20.5411V21.4291C95.909 21.6431 96.062 21.7961 96.277 21.7961H98.174C98.2228 21.798 98.2714 21.7899 98.3169 21.7722C98.3624 21.7544 98.4037 21.7275 98.4382 21.693C98.4728 21.6586 98.4999 21.6173 98.5177 21.5719C98.5356 21.5265 98.5439 21.4779 98.542 21.4291V0.367085C98.5439 0.318225 98.5356 0.269513 98.5176 0.22402C98.4997 0.178528 98.4726 0.13724 98.4379 0.102761C98.4032 0.0682812 98.3618 0.0413571 98.3162 0.0236855C98.2706 0.00601389 98.2219 -0.00202192 98.173 8.45524e-05H96.276C96.2273 -0.00188004 96.1786 0.00626086 96.1331 0.0239959C96.0877 0.041731 96.0464 0.068677 96.0118 0.103142C95.9772 0.137606 95.9502 0.178844 95.9323 0.224266C95.9145 0.269688 95.9062 0.318312 95.908 0.367085V11.0821C95.878 11.2651 95.786 11.2961 95.663 11.1731H95.664ZM92.205 19.6531C91.1905 19.6526 90.2176 19.2493 89.5002 18.5319C88.7828 17.8145 88.3795 16.8416 88.379 15.8271C88.3793 14.8125 88.7823 13.8396 89.4995 13.122C90.2167 12.4044 91.1895 12.0009 92.204 12.0001C93.2189 12.0003 94.1922 12.4036 94.9098 13.1213C95.6275 13.8389 96.0308 14.8122 96.031 15.8271C96 17.9391 94.286 19.6531 92.204 19.6531H92.205ZM36.122 9.49008C38.969 9.49008 40.562 11.3881 40.562 14.4801V21.4291C40.5639 21.4779 40.5556 21.5265 40.5377 21.5719C40.5199 21.6173 40.4928 21.6586 40.4583 21.693C40.4237 21.7275 40.3824 21.7544 40.3369 21.7722C40.2914 21.7899 40.2428 21.798 40.194 21.7961H38.296C38.2473 21.7979 38.1988 21.7897 38.1535 21.7719C38.1081 21.7541 38.0669 21.7271 38.0325 21.6926C37.998 21.6582 37.971 21.617 37.9532 21.5717C37.9354 21.5263 37.9272 21.4778 37.929 21.4291L37.959 15.0611C37.9602 14.6547 37.8811 14.2521 37.7261 13.8764C37.5711 13.5007 37.3434 13.1594 37.056 12.8721C36.7687 12.5847 36.4274 12.357 36.0517 12.202C35.676 12.0471 35.2734 11.9679 34.867 11.9691C34.4607 11.968 34.0582 12.0473 33.6827 12.2023C33.3071 12.3573 32.9659 12.5851 32.6786 12.8724C32.3914 13.1598 32.1638 13.501 32.0089 13.8767C31.854 14.2523 31.7748 14.6548 31.776 15.0611L31.714 21.4291C31.7158 21.4778 31.7076 21.5263 31.6898 21.5717C31.672 21.617 31.645 21.6582 31.6106 21.6926C31.5761 21.7271 31.5349 21.7541 31.4896 21.7719C31.4442 21.7897 31.3957 21.7979 31.347 21.7961H29.449C29.4003 21.7979 29.3518 21.7897 29.3065 21.7719C29.2611 21.7541 29.2199 21.7271 29.1855 21.6926C29.151 21.6582 29.124 21.617 29.1062 21.5717C29.0884 21.5263 29.0802 21.4778 29.082 21.4291V10.1631C29.082 9.94909 29.235 9.79608 29.449 9.79608H31.347C31.561 9.79608 31.714 9.94909 31.714 10.1631V11.0201C31.714 11.2351 31.837 11.2651 31.959 11.1121C33.092 10.0411 34.469 9.49008 36.122 9.49008ZM23.786 21.4291V10.1631C23.786 9.94909 23.939 9.79608 24.153 9.79608H26.051C26.265 9.79608 26.418 9.94909 26.418 10.1631V21.4301C26.4198 21.4788 26.4116 21.5273 26.3938 21.5727C26.376 21.618 26.349 21.6592 26.3146 21.6936C26.2801 21.7281 26.2389 21.7551 26.1936 21.7729C26.1482 21.7907 26.0997 21.7989 26.051 21.7971H24.153C24.1043 21.7989 24.0558 21.7907 24.0105 21.7729C23.9651 21.7551 23.9239 21.7281 23.8895 21.6936C23.855 21.6592 23.828 21.618 23.8102 21.5727C23.7924 21.5273 23.7842 21.4788 23.786 21.4301V21.4291ZM26.724 2.75508C26.724 3.73508 25.959 4.43908 25.01 4.40808C24.092 4.37808 23.357 3.55108 23.418 2.60208C23.51 1.74508 24.184 1.07208 25.102 1.07208C26.02 1.07208 26.724 1.80608 26.724 2.75508ZM21.154 14.3271V21.4291C21.1559 21.4779 21.1476 21.5265 21.1297 21.5719C21.1119 21.6173 21.0848 21.6586 21.0502 21.693C21.0157 21.7275 20.9744 21.7544 20.9289 21.7722C20.8834 21.7899 20.8348 21.798 20.786 21.7961H18.888C18.8393 21.798 18.7906 21.7899 18.7451 21.7722C18.6997 21.7544 18.6584 21.7275 18.6238 21.693C18.5892 21.6586 18.5622 21.6173 18.5443 21.5719C18.5265 21.5265 18.5182 21.4779 18.52 21.4291V14.7861C18.5215 14.4239 18.4512 14.065 18.3133 13.7301C18.1753 13.3952 17.9725 13.0909 17.7163 12.8348C17.4602 12.5786 17.1559 12.3758 16.821 12.2378C16.4861 12.0999 16.1272 12.0296 15.765 12.0311C15.4028 12.0296 15.0439 12.0999 14.709 12.2378C14.3741 12.3758 14.0698 12.5786 13.8137 12.8348C13.5576 13.0909 13.3547 13.3952 13.2168 13.7301C13.0788 14.065 13.0086 14.4239 13.01 14.7861V21.4291C13.0118 21.4778 13.0036 21.5263 12.9858 21.5717C12.968 21.617 12.941 21.6582 12.9066 21.6926C12.8721 21.7271 12.8309 21.7541 12.7856 21.7719C12.7402 21.7897 12.6917 21.7979 12.643 21.7961H10.745C10.6963 21.7979 10.6478 21.7897 10.6025 21.7719C10.5571 21.7541 10.5159 21.7271 10.4815 21.6926C10.447 21.6582 10.42 21.617 10.4022 21.5717C10.3844 21.5263 10.3762 21.4778 10.378 21.4291V14.7861C10.3754 14.048 10.081 13.3409 9.55911 12.819C9.03721 12.2971 8.33011 12.0027 7.59203 12.0001C6.85394 12.0027 6.14684 12.2971 5.62494 12.819C5.10303 13.3409 4.80866 14.048 4.80603 14.7861V21.4291C4.80785 21.4778 4.7996 21.5263 4.7818 21.5717C4.76401 21.617 4.73704 21.6582 4.70259 21.6926C4.66814 21.7271 4.62695 21.7541 4.5816 21.7719C4.53625 21.7897 4.48771 21.7979 4.43903 21.7961H2.60203C2.55334 21.7979 2.5048 21.7897 2.45945 21.7719C2.4141 21.7541 2.37291 21.7271 2.33846 21.6926C2.30401 21.6582 2.27704 21.617 2.25925 21.5717C2.24145 21.5263 2.2332 21.4778 2.23503 21.4291V13.8371C2.23503 13.0411 1.86703 12.4291 0.888025 12.4291H0.368025C0.319083 12.4311 0.270262 12.4229 0.22465 12.405C0.179038 12.3872 0.137628 12.36 0.10304 12.3254C0.0684509 12.2907 0.0414363 12.2492 0.0237045 12.2035C0.00597263 12.1579 -0.00209046 12.109 2.52083e-05 12.0601V10.1621C2.52083e-05 9.94808 0.153025 9.79508 0.367025 9.79508H1.77603C4.10203 9.73409 4.62203 10.9891 4.68403 11.0811C4.80603 11.2341 4.86703 11.2341 4.92903 11.1411C5.81603 10.1011 7.22402 9.55009 8.78603 9.55009C10.5 9.55009 11.786 10.2851 12.398 11.3561C12.49 11.5401 12.643 11.5401 12.765 11.3861C13.653 10.2851 15.122 9.55009 16.898 9.55009C19.561 9.55009 21.153 11.2341 21.153 14.3261L21.154 14.3271ZM176.02 19.5921V21.4901C176.022 21.5388 176.014 21.5873 175.996 21.6327C175.978 21.678 175.951 21.7192 175.917 21.7536C175.882 21.7881 175.841 21.8151 175.796 21.8329C175.75 21.8507 175.702 21.8589 175.653 21.8571H174.306C174.031 21.8571 173.786 21.8271 173.571 21.7961C171.337 21.3981 171.153 19.3161 171.153 18.8261V15.1221C171.154 14.7158 171.075 14.3133 170.92 13.9377C170.765 13.5622 170.537 13.221 170.25 12.9337C169.962 12.6465 169.621 12.4188 169.245 12.2639C168.87 12.109 168.467 12.0299 168.061 12.0311C167.655 12.0299 167.252 12.109 166.877 12.2639C166.501 12.4188 166.16 12.6465 165.872 12.9337C165.585 13.221 165.357 13.5622 165.202 13.9377C165.047 14.3133 164.968 14.7158 164.969 15.1221L164.939 21.4291C164.941 21.4779 164.933 21.5265 164.915 21.5719C164.897 21.6173 164.87 21.6586 164.835 21.693C164.801 21.7275 164.759 21.7544 164.714 21.7722C164.668 21.7899 164.62 21.798 164.571 21.7961H162.673C162.49 21.7961 162.367 21.6731 162.306 21.5201V10.1631C162.306 9.94909 162.459 9.79608 162.673 9.79608H164.571C164.694 9.79608 164.816 9.85709 164.878 9.94909C164.908 10.0101 164.938 10.0711 164.938 10.1631V11.1121C164.969 11.2351 165.061 11.2651 165.184 11.1421C166.316 10.0411 167.694 9.49008 169.316 9.49008C172.163 9.49008 173.756 11.3881 173.756 14.4801V18.3371C173.816 18.9491 174 19.1941 174.582 19.2241H175.653C175.867 19.2241 176.02 19.3781 176.02 19.5921ZM113.02 10.1321L112.286 11.8471L112.316 11.8171L106.806 24.5511C106.041 26.2651 105.031 27.5511 103.316 27.5811H101.571C101.522 27.5829 101.474 27.5747 101.428 27.5569C101.383 27.5391 101.342 27.5121 101.307 27.4776C101.273 27.4432 101.246 27.402 101.228 27.3567C101.21 27.3113 101.202 27.2628 101.204 27.2141V25.4081C101.204 25.1941 101.357 25.0411 101.571 25.0411H103.041C104.112 25.0411 104.724 23.1431 105.031 22.4691C105.214 22.0411 105.429 21.5821 105.429 21.5821L100.255 10.1631C100.163 9.98009 100.255 9.82708 100.469 9.82708H102.673C102.782 9.83261 102.887 9.86656 102.978 9.92553C103.069 9.9845 103.143 10.0664 103.193 10.1631L106.867 18.1531L110.204 10.1631C110.254 10.0666 110.328 9.98474 110.419 9.92579C110.51 9.86684 110.616 9.83281 110.724 9.82708H112.837C112.99 9.79608 113.082 9.94909 113.02 10.1331V10.1321ZM120.796 9.79608C120.735 9.79608 120.643 9.76608 120.582 9.76608C120.019 9.58035 119.43 9.48714 118.837 9.49008C115.837 9.49008 113.387 11.9391 113.387 14.9391C113.387 16.2551 113.847 17.4791 114.643 18.4291C114.673 18.4591 114.673 18.5511 114.643 18.5821C114.13 19.1903 113.849 19.9597 113.847 20.7551C113.847 21.3981 114.031 21.9801 114.337 22.4691C114.367 22.5311 114.367 22.5921 114.307 22.6221C113.387 23.3881 112.807 24.4901 112.807 25.7141V25.7441C112.807 26.0821 112.837 27.2141 113.786 28.2551C114.826 29.3881 116.541 29.9691 118.898 29.9691C121.194 29.9691 122.908 29.3881 123.949 28.2861C124.929 27.2141 124.989 26.0511 124.989 25.7451V25.7151C124.989 23.4491 123.061 21.6121 120.673 21.6121H117.062C116.839 21.6003 116.63 21.5015 116.48 21.3371C116.48 21.3071 116.449 21.3071 116.449 21.2761C116.396 21.201 116.355 21.1184 116.327 21.0311V21.0001C116.327 20.9701 116.296 20.9391 116.296 20.9081V20.7241C116.296 20.4181 116.418 20.1741 116.633 19.9901C116.663 19.9601 116.755 19.9601 116.816 19.9601C117.459 20.2178 118.144 20.3525 118.836 20.3571C121.836 20.3571 124.286 17.9081 124.286 14.9081C124.286 13.9591 124.041 13.0711 123.612 12.2761C123.582 12.2141 123.612 12.1841 123.673 12.1841H124.714C124.763 12.1861 124.812 12.1779 124.857 12.1601C124.903 12.1423 124.944 12.1153 124.979 12.0807C125.013 12.0461 125.04 12.0048 125.058 11.9592C125.076 11.9137 125.084 11.8649 125.082 11.8161V10.1331C125.084 10.0842 125.076 10.0355 125.058 9.98996C125.04 9.94442 125.013 9.90305 124.979 9.86848C124.944 9.83391 124.903 9.80687 124.857 9.78907C124.812 9.77128 124.763 9.76311 124.714 9.76509H120.796V9.79508V9.79608ZM122.51 25.7451V25.9591C122.468 26.2035 122.35 26.4285 122.173 26.6021C121.623 27.2141 120.459 27.5201 118.929 27.5201C117.398 27.5201 116.235 27.2141 115.684 26.6331C115.347 26.2961 115.316 25.9591 115.316 25.8671V25.7141C115.316 24.8271 116.143 24.0921 117.153 24.0921H120.673C121.683 24.0921 122.51 24.8271 122.51 25.7451C122.51 25.7451 122.51 25.7151 122.51 25.7451ZM118.837 17.9691C117.184 17.9691 115.837 16.6221 115.837 14.9691C115.837 13.3161 117.184 11.9691 118.837 11.9691C120.49 11.9691 121.837 13.3161 121.837 14.9691C121.837 16.6221 120.49 17.9691 118.837 17.9691Z" fill="black"/>
</g>
<defs>
<clipPath id="clip0_1_151">
<rect width="177" height="30" fill="white"/>
</clipPath>
</defs>
</svg>
