<svg width="138" height="15" viewBox="0 0 138 15" fill="none" xmlns="http://www.w3.org/2000/svg">
<path d="M4.32756 4.6386H6.9048V7.047H4.32756V14.5521H1.40868V7.047H0V4.6386H1.40868V4.19634C1.40868 2.85858 1.77426 1.82448 2.50578 1.09422C3.23712 0.363602 4.2336 -0.000898337 5.49594 1.66256e-06C6.17994 1.66256e-06 6.72408 0.107102 7.12908 0.321302V2.81106C6.78123 2.63024 6.39352 2.53969 6.00156 2.54772C5.57334 2.53404 5.15358 2.66832 4.81356 2.92824C4.48956 3.18564 4.32756 3.61404 4.32756 4.21344V4.63878V4.6386ZM17.1716 12.1873C16.7688 12.9897 16.1432 13.6591 15.3697 14.1151C14.5854 14.5836 13.6494 14.8181 12.5617 14.8181C11.8331 14.8267 11.1095 14.697 10.4292 14.436C9.8072 14.1966 9.24166 13.8308 8.76834 13.3616C8.29707 12.8888 7.9266 12.3253 7.67934 11.7052C7.41152 11.0354 7.27701 10.3198 7.28334 9.5985C7.27741 8.88662 7.41197 8.18056 7.67934 7.52076C7.92946 6.90248 8.29909 6.33961 8.76708 5.8644C9.23173 5.39407 9.78619 5.02195 10.3975 4.77018C11.0454 4.50279 11.7404 4.36848 12.4412 4.37526C13.1485 4.3674 13.8502 4.50169 14.5046 4.77018C15.1095 5.01758 15.6552 5.39004 16.106 5.86314C16.5587 6.34802 16.911 6.91768 17.1425 7.5393C17.3967 8.22315 17.5229 8.94798 17.5147 9.67752C17.5147 9.85122 17.5147 9.99882 17.5055 10.1185C17.5009 10.213 17.4907 10.3071 17.4749 10.4004H10.1651C10.1889 10.682 10.2713 10.9556 10.4069 11.2036C10.5411 11.4458 10.7203 11.6603 10.9348 11.8355C11.1573 12.0173 11.4091 12.1598 11.6795 12.2569C11.9597 12.3592 12.2562 12.4105 12.5548 12.4083C13.1049 12.4083 13.5409 12.3012 13.8631 12.087C14.1998 11.8569 14.4816 11.5552 14.6882 11.2036L17.1715 12.1871L17.1716 12.1873ZM14.6354 8.49276C14.58 7.97903 14.3273 7.50689 13.9306 7.17588C13.6038 6.9227 13.218 6.75677 12.8095 6.69367C12.401 6.63057 11.9832 6.67237 11.5952 6.81516C11.1046 7.00897 10.6909 7.35815 10.4175 7.8093C10.2918 8.0172 10.213 8.25001 10.1866 8.4915L14.6356 8.49276H14.6354ZM29.2304 4.6386V14.5561H26.3509V13.2314C26.0059 13.7376 25.5294 14.1401 24.9727 14.3955C24.3958 14.6625 23.7667 14.7975 23.1311 14.7904C22.4885 14.7991 21.852 14.6642 21.2683 14.3955C20.7041 14.1322 20.1979 13.7593 19.7791 13.2986C19.3444 12.819 19.006 12.2602 18.7823 11.6528C18.5365 10.9947 18.4135 10.2972 18.4192 9.59472C18.413 8.89573 18.5361 8.20162 18.7823 7.5474C19.0094 6.94121 19.3475 6.38263 19.7791 5.90022C20.196 5.43577 20.7026 5.06044 21.2683 4.79682C21.8515 4.5258 22.488 4.38859 23.1311 4.39524C23.765 4.3902 24.3929 4.51998 24.9727 4.77576C25.531 5.02168 26.0087 5.42009 26.3509 5.92524V4.6386H29.2304ZM21.3383 9.5976C21.3349 9.94247 21.4037 10.2842 21.5402 10.6009C21.6701 10.9032 21.8544 11.1789 22.084 11.4145C22.3205 11.6548 22.6025 11.8456 22.9135 11.9758C23.2244 12.1061 23.5582 12.1731 23.8954 12.1731C24.2325 12.1731 24.5663 12.1061 24.8773 11.9758C25.1882 11.8456 25.4702 11.6548 25.7067 11.4145C25.9359 11.1786 26.1203 10.9029 26.2507 10.6009C26.384 10.2832 26.4527 9.94215 26.4527 9.5976C26.4527 9.25306 26.384 8.91197 26.2507 8.59428C26.1203 8.2923 25.9359 8.0166 25.7067 7.78068C25.4705 7.54026 25.1887 7.34934 24.8778 7.21908C24.4093 7.02291 23.8928 6.97156 23.3948 7.07165C22.8969 7.17175 22.4403 7.41871 22.084 7.78068C21.8544 8.01626 21.6701 8.29205 21.5402 8.59428C21.4038 8.91102 21.335 9.25275 21.3383 9.5976ZM34.6048 1.7262V4.6386H37.121V7.047H34.6048V10.681C34.6048 11.2165 34.7224 11.5983 34.9573 11.8265C35.1923 12.0548 35.5536 12.1685 36.0412 12.1675C36.2313 12.1672 36.4206 12.1433 36.6048 12.0965C36.7931 12.0517 36.972 11.9737 37.1329 11.8661V14.3953C36.8616 14.5177 36.5785 14.6122 36.288 14.6772C35.8913 14.7636 35.486 14.8038 35.08 14.7969C34.0328 14.7969 33.2071 14.4927 32.6034 13.8845C31.9997 13.2761 31.6933 12.416 31.6845 11.3038V7.04682H30.2773V4.6386H31.6845V1.7262H34.6048ZM41.1082 14.5561H38.1681V0.501662H41.1082V5.90004C41.4049 5.42926 41.8171 5.04218 42.3056 4.77558C42.8434 4.49901 43.4424 4.36314 44.0469 4.38066C45.1912 4.38066 46.087 4.74228 46.7348 5.46552C47.3827 6.18894 47.7077 7.17948 47.7104 8.43732V14.5602H44.7718V9.09576C44.7718 8.45316 44.6173 7.95456 44.3083 7.59996C43.9994 7.24536 43.5632 7.06968 43 7.07328C42.7395 7.06245 42.4799 7.111 42.2409 7.21524C42.0019 7.31949 41.7898 7.47671 41.6205 7.67502C41.2789 8.07606 41.1082 8.61822 41.1082 9.30114V14.5561ZM58.5002 12.1873C58.0974 12.9894 57.4723 13.6586 56.6995 14.1151C55.9136 14.5836 54.977 14.8181 53.89 14.8181C53.1612 14.8268 52.4373 14.6972 51.7567 14.4362C51.1348 14.1965 50.5694 13.8307 50.0958 13.3618C49.6254 12.8888 49.2558 12.3253 49.0093 11.7054C48.7408 11.0358 48.6063 10.3201 48.6133 9.59868C48.6067 8.88674 48.7413 8.18054 49.0093 7.52094C49.259 6.90271 49.6282 6.33984 50.0958 5.86458C50.5607 5.39455 51.1151 5.02248 51.7262 4.77036C53.0453 4.24724 54.5144 4.24724 55.8335 4.77036C56.4363 5.01797 56.9798 5.39046 57.4283 5.86332C57.8814 6.34783 58.2336 6.9176 58.4645 7.53948C58.7192 8.22326 58.8459 8.94807 58.8382 9.6777C58.8382 9.8514 58.8382 9.999 58.8276 10.1187C58.8238 10.2132 58.8136 10.3074 58.7972 10.4006H51.4953C51.5178 10.6824 51.6001 10.9562 51.7369 11.2037C51.8707 11.4464 52.05 11.6609 52.265 11.8357C52.4878 12.0169 52.7394 12.1593 53.0095 12.2571C53.2899 12.3593 53.5863 12.4105 53.8848 12.4085C54.4358 12.4085 54.8723 12.3014 55.1945 12.0872C55.5312 11.8571 55.813 11.5554 56.0196 11.2037L58.5002 12.1873ZM55.9642 8.49276C55.9087 7.97905 55.6559 7.50696 55.2591 7.17606C54.9324 6.92282 54.5466 6.75685 54.1381 6.69374C53.7295 6.63064 53.3117 6.67249 52.9238 6.81534C52.4349 7.01045 52.0232 7.36 51.7514 7.81074C51.6263 8.01878 51.5475 8.25134 51.5203 8.49258H55.9642V8.49276ZM66.0096 7.48944C65.7732 7.39528 65.519 7.35393 65.2649 7.3683C64.4465 7.3683 63.8087 7.64964 63.3519 8.21232C62.8952 8.775 62.6672 9.54432 62.6681 10.5205V14.5561H59.7492V4.63878H62.647V6.2649C62.895 5.71394 63.293 5.24392 63.7956 4.9086C64.3055 4.57646 64.9035 4.40537 65.5119 4.41756C65.6159 4.41738 65.72 4.42404 65.8233 4.43736C65.8868 4.44276 65.9493 4.4559 66.0096 4.47696V7.48944ZM91.3576 5.0418V7.54146H96.2786V9.9324H91.3576V14.4967H88.4077V2.6046H96.7295V5.0418H91.3576ZM105.45 12.0591V14.4963H97.7031V2.6046H100.652V12.06H105.45V12.0593V12.0591ZM116.243 8.55036C116.243 12.4623 114.069 14.76 110.871 14.76C107.674 14.76 105.5 12.5082 105.5 8.55036C105.5 4.63824 107.674 2.38662 110.871 2.38662C114.069 2.38662 116.243 4.63824 116.243 8.55018V8.55036ZM113.123 8.53434C113.123 5.92614 112.238 4.96404 110.871 4.96404C109.522 4.96404 108.62 5.92614 108.62 8.53434C108.62 11.1737 109.521 12.1048 110.871 12.1048C112.238 12.1048 113.123 11.1742 113.123 8.53452V8.53434ZM126.809 2.6046L122.493 10.1497V14.4961H119.543V10.1497L115.228 2.6046H118.488L121.064 7.49466H121.22L123.765 2.6046H126.809ZM137.295 8.53452C137.295 12.105 135.339 14.4961 131.846 14.4961H127.266V2.6046H131.784C135.339 2.6046 137.295 4.97988 137.295 8.53452ZM134.252 8.53452C134.252 5.97312 133.197 5.18112 131.272 5.18112H130.216V11.9187H131.272C133.197 11.9194 134.252 11.1436 134.252 8.5347V8.53452ZM74.1508 6.71796L74.6928 6.17616L79.9423 11.4255L79.4003 11.9675L74.1508 6.71796Z" fill="white"/>
</svg>
